Interstate-Bold_Italic.ufo
<glyph name="exclam" format="1">
  <advance width="340"/>
  <unicode hex="0021"/>
  <outline>
    <contour>
      <point x="317" y="700" type="line"/>
      <point x="266" y="412" type="line"/>
      <point x="210" y="220" type="line"/>
      <point x="116" y="220" type="line"/>
      <point x="126" y="412" type="line"/>
      <point x="177" y="700" type="line"/>
    </contour>
    <contour>
      <point x="221" y="74" type="curve" smooth="yes"/>
      <point x="221" y="28"/>
      <point x="182" y="-11"/>
      <point x="136" y="-11" type="curve" smooth="yes"/>
      <point x="90" y="-11"/>
      <point x="51" y="28"/>
      <point x="51" y="74" type="curve" smooth="yes"/>
      <point x="51" y="120"/>
      <point x="90" y="159"/>
      <point x="136" y="159" type="curve" smooth="yes"/>
      <point x="182" y="159"/>
      <point x="221" y="120"/>
    </contour>
  </outline>
</glyph>
<glyph name="quotedbl" format="1">
  <advance width="528"/>
  <unicode hex="0022"/>
  <outline>
    <contour>
      <point x="549" y="700" type="line"/>
      <point x="456" y="373" type="line"/>
      <point x="361" y="373" type="line"/>
      <point x="384" y="700" type="line"/>
    </contour>
    <contour>
      <point x="300" y="700" type="line"/>
      <point x="207" y="373" type="line"/>
      <point x="112" y="373" type="line"/>
      <point x="135" y="700" type="line"/>
    </contour>
  </outline>
</glyph>
<glyph name="numbersign" format="1">
  <advance width="736"/>
  <unicode hex="0023"/>
  <outline>
    <contour>
      <point x="739" y="560" type="line"/>
      <point x="719" y="445" type="line"/>
      <point x="599" y="445" type="line"/>
      <point x="565" y="255" type="line"/>
      <point x="685" y="255" type="line"/>
      <point x="665" y="140" type="line"/>
      <point x="545" y="140" type="line"/>
      <point x="520" y="0" type="line"/>
      <point x="398" y="0" type="line"/>
      <point x="423" y="140" type="line"/>
      <point x="271" y="140" type="line"/>
      <point x="246" y="0" type="line"/>
      <point x="124" y="0" type="line"/>
      <point x="149" y="140" type="line"/>
      <point x="29" y="140" type="line"/>
      <point x="49" y="255" type="line"/>
      <point x="169" y="255" type="line"/>
      <point x="203" y="445" type="line"/>
      <point x="83" y="445" type="line"/>
      <point x="103" y="560" type="line"/>
      <point x="223" y="560" type="line"/>
      <point x="248" y="700" type="line"/>
      <point x="370" y="700" type="line"/>
      <point x="345" y="560" type="line"/>
      <point x="497" y="560" type="line"/>
      <point x="522" y="700" type="line"/>
      <point x="644" y="700" type="line"/>
      <point x="619" y="560" type="line"/>
    </contour>
    <contour>
      <point x="477" y="445" type="line"/>
      <point x="325" y="445" type="line"/>
      <point x="291" y="255" type="line"/>
      <point x="443" y="255" type="line"/>
    </contour>
  </outline>
</glyph>
<glyph name="dollar" format="1">
  <advance width="647"/>
  <unicode hex="0024"/>
  <outline>
    <contour>
      <point x="635" y="575" type="curve"/>
      <point x="517" y="486" type="line"/>
      <point x="477" y="541"/>
      <point x="421" y="575"/>
      <point x="351" y="575" type="curve" smooth="yes"/>
      <point x="296" y="575"/>
      <point x="265" y="549"/>
      <point x="265" y="510" type="curve" smooth="yes"/>
      <point x="265" y="475"/>
      <point x="290" y="458"/>
      <point x="394" y="424" type="curve" smooth="yes"/>
      <point x="512" y="386"/>
      <point x="587" y="330"/>
      <point x="587" y="229" type="curve" smooth="yes"/>
      <point x="587" y="111"/>
      <point x="522" y="10"/>
      <point x="350" y="-4" type="curve"/>
      <point x="333" y="-100" type="line"/>
      <point x="193" y="-100" type="line"/>
      <point x="212" y="6" type="line"/>
      <point x="123" y="30"/>
      <point x="56" y="86"/>
      <point x="27" y="143" type="curve"/>
      <point x="144" y="224" type="line"/>
      <point x="179" y="170"/>
      <point x="223" y="126"/>
      <point x="328" y="126" type="curve" smooth="yes"/>
      <point x="397" y="126"/>
      <point x="438" y="154"/>
      <point x="438" y="203" type="curve" smooth="yes"/>
      <point x="438" y="242"/>
      <point x="409" y="267"/>
      <point x="297" y="302" type="curve" smooth="yes"/>
      <point x="175" y="340"/>
      <point x="119" y="390"/>
      <point x="119" y="491" type="curve" smooth="yes"/>
      <point x="119" y="610"/>
      <point x="198" y="692"/>
      <point x="335" y="705" type="curve"/>
      <point x="352" y="800" type="line"/>
      <point x="492" y="800" type="line"/>
      <point x="473" y="693" type="line"/>
      <point x="558" y="667"/>
      <point x="608" y="613"/>
    </contour>
  </outline>
</glyph>
<glyph name="percent" format="1">
  <advance width="995"/>
  <unicode hex="0025"/>
  <outline>
    <contour>
      <point x="74" y="453" type="curve" smooth="yes"/>
      <point x="74" y="610"/>
      <point x="177" y="711"/>
      <point x="288" y="711" type="curve" smooth="yes"/>
      <point x="393" y="711"/>
      <point x="454" y="641"/>
      <point x="454" y="534" type="curve" smooth="yes"/>
      <point x="454" y="377"/>
      <point x="351" y="276"/>
      <point x="240" y="276" type="curve" smooth="yes"/>
      <point x="135" y="276"/>
      <point x="74" y="346"/>
    </contour>
    <contour>
      <point x="850" y="700" type="line"/>
      <point x="297" y="0" type="line"/>
      <point x="176" y="0" type="line"/>
      <point x="729" y="700" type="line"/>
    </contour>
    <contour>
      <point x="574" y="166" type="curve" smooth="yes"/>
      <point x="574" y="323"/>
      <point x="677" y="424"/>
      <point x="788" y="424" type="curve" smooth="yes"/>
      <point x="893" y="424"/>
      <point x="954" y="354"/>
      <point x="954" y="247" type="curve" smooth="yes"/>
      <point x="954" y="90"/>
      <point x="851" y="-11"/>
      <point x="740" y="-11" type="curve" smooth="yes"/>
      <point x="635" y="-11"/>
      <point x="574" y="59"/>
    </contour>
    <contour>
      <point x="187" y="448" type="curve" smooth="yes"/>
      <point x="187" y="392"/>
      <point x="210" y="368"/>
      <point x="248" y="368" type="curve" smooth="yes"/>
      <point x="301" y="368"/>
      <point x="341" y="445"/>
      <point x="341" y="539" type="curve" smooth="yes"/>
      <point x="341" y="595"/>
      <point x="318" y="619"/>
      <point x="280" y="619" type="curve" smooth="yes"/>
      <point x="227" y="619"/>
      <point x="187" y="542"/>
    </contour>
    <contour>
      <point x="687" y="161" type="curve" smooth="yes"/>
      <point x="687" y="105"/>
      <point x="710" y="81"/>
      <point x="748" y="81" type="curve" smooth="yes"/>
      <point x="801" y="81"/>
      <point x="841" y="158"/>
      <point x="841" y="252" type="curve" smooth="yes"/>
      <point x="841" y="308"/>
      <point x="818" y="332"/>
      <point x="780" y="332" type="curve" smooth="yes"/>
      <point x="727" y="332"/>
      <point x="687" y="255"/>
    </contour>
  </outline>
</glyph>
<glyph name="ampersand" format="1">
  <advance width="696"/>
  <unicode hex="0026"/>
  <outline>
    <contour>
      <point x="637" y="302" type="line"/>
      <point x="606" y="237"/>
      <point x="571" y="182"/>
      <point x="533" y="138" type="curve"/>
      <point x="624" y="0" type="line"/>
      <point x="470" y="0" type="line"/>
      <point x="435" y="50" type="line"/>
      <point x="373" y="10"/>
      <point x="314" y="-11"/>
      <point x="235" y="-11" type="curve" smooth="yes"/>
      <point x="104" y="-11"/>
      <point x="22" y="55"/>
      <point x="22" y="171" type="curve" smooth="yes"/>
      <point x="22" y="279"/>
      <point x="94" y="340"/>
      <point x="200" y="389" type="curve"/>
      <point x="196" y="396" type="line" smooth="yes"/>
      <point x="164" y="451"/>
      <point x="149" y="490"/>
      <point x="149" y="537" type="curve" smooth="yes"/>
      <point x="149" y="649"/>
      <point x="235" y="711"/>
      <point x="355" y="711" type="curve" smooth="yes"/>
      <point x="443" y="711"/>
      <point x="519" y="681"/>
      <point x="583" y="621" type="curve"/>
      <point x="499" y="526" type="line"/>
      <point x="457" y="565"/>
      <point x="400" y="587"/>
      <point x="356" y="587" type="curve" smooth="yes"/>
      <point x="309" y="587"/>
      <point x="287" y="568"/>
      <point x="287" y="538" type="curve" smooth="yes"/>
      <point x="287" y="518"/>
      <point x="298" y="491"/>
      <point x="315" y="465" type="curve" smooth="yes"/>
      <point x="466" y="237" type="line"/>
      <point x="489" y="268"/>
      <point x="511" y="304"/>
      <point x="531" y="346" type="curve"/>
    </contour>
    <contour>
      <point x="371" y="144" type="curve"/>
      <point x="265" y="297" type="line"/>
      <point x="206" y="273"/>
      <point x="165" y="237"/>
      <point x="165" y="184" type="curve" smooth="yes"/>
      <point x="165" y="136"/>
      <point x="198" y="113"/>
      <point x="255" y="113" type="curve" smooth="yes"/>
      <point x="302" y="113"/>
      <point x="334" y="121"/>
    </contour>
  </outline>
</glyph>
<glyph name="quotesingle" format="1">
  <advance width="284"/>
  <unicode hex="0027"/>
  <outline>
    <contour>
      <point x="304" y="700" type="line"/>
      <point x="211" y="373" type="line"/>
      <point x="111" y="373" type="line"/>
      <point x="134" y="700" type="line"/>
    </contour>
  </outline>
</glyph>
<glyph name="parenleft" format="1">
  <advance width="370"/>
  <unicode hex="0028"/>
  <outline>
    <contour>
      <point x="395" y="655" type="line"/>
      <point x="276" y="524"/>
      <point x="205" y="367"/>
      <point x="205" y="192" type="curve" smooth="yes"/>
      <point x="205" y="84"/>
      <point x="250" y="-11"/>
      <point x="273" y="-51" type="curve"/>
      <point x="171" y="-111" type="line"/>
      <point x="133" y="-57"/>
      <point x="61" y="60"/>
      <point x="61" y="221" type="curve" smooth="yes"/>
      <point x="61" y="479"/>
      <point x="227" y="645"/>
      <point x="315" y="717" type="curve"/>
    </contour>
  </outline>
</glyph>
<glyph name="parenright" format="1">
  <advance width="370"/>
  <unicode hex="0029"/>
  <outline>
    <contour>
      <point x="-12" y="-50" type="line"/>
      <point x="107" y="81"/>
      <point x="178" y="238"/>
      <point x="178" y="413" type="curve" smooth="yes"/>
      <point x="178" y="521"/>
      <point x="133" y="616"/>
      <point x="110" y="656" type="curve"/>
      <point x="212" y="716" type="line"/>
      <point x="250" y="662"/>
      <point x="322" y="545"/>
      <point x="322" y="384" type="curve" smooth="yes"/>
      <point x="322" y="126"/>
      <point x="156" y="-40"/>
      <point x="68" y="-112" type="curve"/>
    </contour>
  </outline>
</glyph>
<glyph name="asterisk" format="1">
  <advance width="500"/>
  <unicode hex="002A"/>
  <outline>
    <contour>
      <point x="467" y="415" type="line"/>
      <point x="414" y="324" type="line"/>
      <point x="292" y="406" type="line"/>
      <point x="303" y="260" type="line"/>
      <point x="197" y="260" type="line"/>
      <point x="207" y="408" type="line"/>
      <point x="85" y="326" type="line"/>
      <point x="33" y="416" type="line"/>
      <point x="174" y="480" type="line"/>
      <point x="33" y="545" type="line"/>
      <point x="85" y="636" type="line"/>
      <point x="207" y="553" type="line"/>
      <point x="197" y="700" type="line"/>
      <point x="303" y="700" type="line"/>
      <point x="292" y="554" type="line"/>
      <point x="414" y="637" type="line"/>
      <point x="467" y="546" type="line"/>
      <point x="323" y="481" type="line"/>
    </contour>
  </outline>
</glyph>
<glyph name="comma" format="1">
  <advance width="272"/>
  <unicode hex="002C"/>
  <outline>
    <contour>
      <point x="211" y="169" type="line"/>
      <point x="75" y="-126" type="line"/>
      <point x="-19" y="-126" type="line"/>
      <point x="48" y="169" type="line"/>
    </contour>
  </outline>
</glyph>
<glyph name="hyphen" format="1">
  <advance width="407"/>
  <unicode hex="002D"/>
  <unicode hex="2010"/>
  <unicode hex="2011"/>
  <outline>
    <contour>
      <point x="377" y="432" type="line"/>
      <point x="353" y="294" type="line"/>
      <point x="66" y="294" type="line"/>
      <point x="90" y="432" type="line"/>
    </contour>
  </outline>
</glyph>
<glyph name="period" format="1">
  <advance width="272"/>
  <unicode hex="002E"/>
  <outline>
    <contour>
      <point x="198" y="83" type="curve" smooth="yes"/>
      <point x="198" y="32"/>
      <point x="155" y="-11"/>
      <point x="104" y="-11" type="curve" smooth="yes"/>
      <point x="53" y="-11"/>
      <point x="10" y="32"/>
      <point x="10" y="83" type="curve" smooth="yes"/>
      <point x="10" y="134"/>
      <point x="53" y="177"/>
      <point x="104" y="177" type="curve" smooth="yes"/>
      <point x="155" y="177"/>
      <point x="198" y="134"/>
    </contour>
  </outline>
</glyph>
<glyph name="slash" format="1">
  <advance width="470"/>
  <unicode hex="002F"/>
  <outline>
    <contour>
      <point x="560" y="790" type="line"/>
      <point x="78" y="-90" type="line"/>
      <point x="-58" y="-90" type="line"/>
      <point x="424" y="790" type="line"/>
    </contour>
  </outline>
</glyph>
<glyph name="zero" format="1">
  <advance width="684"/>
  <unicode hex="0030"/>
  <outline>
    <contour>
      <point x="659" y="432" type="curve" smooth="yes"/>
      <point x="659" y="165"/>
      <point x="509" y="-11"/>
      <point x="319" y="-11" type="curve" smooth="yes"/>
      <point x="155" y="-11"/>
      <point x="57" y="88"/>
      <point x="57" y="268" type="curve" smooth="yes"/>
      <point x="57" y="535"/>
      <point x="207" y="711"/>
      <point x="397" y="711" type="curve" smooth="yes"/>
      <point x="561" y="711"/>
      <point x="659" y="612"/>
    </contour>
    <contour>
      <point x="515" y="411" type="curve" smooth="yes"/>
      <point x="515" y="510"/>
      <point x="476" y="574"/>
      <point x="387" y="574" type="curve" smooth="yes"/>
      <point x="277" y="574"/>
      <point x="201" y="441"/>
      <point x="201" y="289" type="curve" smooth="yes"/>
      <point x="201" y="190"/>
      <point x="240" y="126"/>
      <point x="329" y="126" type="curve" smooth="yes"/>
      <point x="439" y="126"/>
      <point x="515" y="259"/>
    </contour>
  </outline>
</glyph>
<glyph name="one" format="1">
  <advance width="381"/>
  <unicode hex="0031"/>
  <outline>
    <contour>
      <point x="371" y="700" type="line"/>
      <point x="248" y="0" type="line"/>
      <point x="109" y="0" type="line"/>
      <point x="198" y="506" type="line"/>
      <point x="82" y="506" type="line"/>
      <point x="100" y="609" type="line"/>
      <point x="179" y="613"/>
      <point x="231" y="642"/>
      <point x="255" y="700" type="curve"/>
    </contour>
  </outline>
</glyph>
<glyph name="two" format="1">
  <advance width="679"/>
  <unicode hex="0032"/>
  <outline>
    <contour>
      <point x="649" y="527" type="curve" smooth="yes"/>
      <point x="649" y="403"/>
      <point x="592" y="351"/>
      <point x="421" y="288" type="curve" smooth="yes"/>
      <point x="308" y="246"/>
      <point x="249" y="212"/>
      <point x="220" y="135" type="curve"/>
      <point x="586" y="135" type="line"/>
      <point x="562" y="0" type="line"/>
      <point x="18" y="0" type="line"/>
      <point x="68" y="261"/>
      <point x="219" y="353"/>
      <point x="409" y="415" type="curve" smooth="yes"/>
      <point x="473" y="436"/>
      <point x="505" y="460"/>
      <point x="505" y="507" type="curve" smooth="yes"/>
      <point x="505" y="546"/>
      <point x="468" y="574"/>
      <point x="384" y="574" type="curve" smooth="yes"/>
      <point x="309" y="574"/>
      <point x="245" y="544"/>
      <point x="191" y="504" type="curve"/>
      <point x="120" y="613" type="line"/>
      <point x="199" y="679"/>
      <point x="296" y="711"/>
      <point x="397" y="711" type="curve" smooth="yes"/>
      <point x="555" y="711"/>
      <point x="649" y="643"/>
    </contour>
  </outline>
</glyph>
<glyph name="three" format="1">
  <advance width="641"/>
  <unicode hex="0033"/>
  <outline>
    <contour>
      <point x="603" y="536" type="curve" smooth="yes"/>
      <point x="603" y="441"/>
      <point x="548" y="392"/>
      <point x="494" y="365" type="curve"/>
      <point x="547" y="339"/>
      <point x="581" y="293"/>
      <point x="581" y="229" type="curve" smooth="yes"/>
      <point x="581" y="74"/>
      <point x="470" y="-11"/>
      <point x="295" y="-11" type="curve" smooth="yes"/>
      <point x="157" y="-11"/>
      <point x="59" y="52"/>
      <point x="-3" y="146" type="curve"/>
      <point x="118" y="224" type="line"/>
      <point x="164" y="165"/>
      <point x="211" y="126"/>
      <point x="310" y="126" type="curve" smooth="yes"/>
      <point x="383" y="126"/>
      <point x="436" y="160"/>
      <point x="436" y="225" type="curve" smooth="yes"/>
      <point x="436" y="270"/>
      <point x="405" y="297"/>
      <point x="336" y="297" type="curve" smooth="yes"/>
      <point x="266" y="297" type="line"/>
      <point x="290" y="430" type="line"/>
      <point x="363" y="430" type="line" smooth="yes"/>
      <point x="429" y="430"/>
      <point x="457" y="461"/>
      <point x="457" y="505" type="curve" smooth="yes"/>
      <point x="457" y="551"/>
      <point x="421" y="574"/>
      <point x="347" y="574" type="curve" smooth="yes"/>
      <point x="298" y="574"/>
      <point x="248" y="555"/>
      <point x="208" y="523" type="curve"/>
      <point x="123" y="622" type="line"/>
      <point x="201" y="691"/>
      <point x="297" y="711"/>
      <point x="368" y="711" type="curve" smooth="yes"/>
      <point x="516" y="711"/>
      <point x="603" y="645"/>
    </contour>
  </outline>
</glyph>
<glyph name="four" format="1">
  <advance width="691"/>
  <unicode hex="0034"/>
  <outline>
    <contour>
      <point x="635" y="700" type="line"/>
      <point x="560" y="273" type="line"/>
      <point x="652" y="273" type="line"/>
      <point x="629" y="143" type="line"/>
      <point x="537" y="143" type="line"/>
      <point x="512" y="0" type="line"/>
      <point x="377" y="0" type="line"/>
      <point x="402" y="143" type="line"/>
      <point x="23" y="143" type="line"/>
      <point x="45" y="269" type="line"/>
      <point x="488" y="700" type="line"/>
    </contour>
    <contour>
      <point x="475" y="540" type="curve"/>
      <point x="459" y="522"/>
      <point x="431" y="488"/>
      <point x="403" y="461" type="curve" smooth="yes"/>
      <point x="282" y="344" type="line" smooth="yes"/>
      <point x="255" y="318"/>
      <point x="221" y="286"/>
      <point x="204" y="271" type="curve"/>
      <point x="228" y="271"/>
      <point x="303" y="273"/>
      <point x="343" y="273" type="curve" smooth="yes"/>
      <point x="425" y="273" type="line"/>
      <point x="445" y="387" type="line" smooth="yes"/>
      <point x="452" y="427"/>
      <point x="470" y="514"/>
    </contour>
  </outline>
</glyph>
<glyph name="five" format="1">
  <advance width="664"/>
  <unicode hex="0035"/>
  <outline>
    <contour>
      <point x="647" y="700" type="line"/>
      <point x="624" y="565" type="line"/>
      <point x="291" y="565" type="line"/>
      <point x="261" y="444" type="line"/>
      <point x="284" y="458"/>
      <point x="325" y="476"/>
      <point x="381" y="476" type="curve" smooth="yes"/>
      <point x="531" y="476"/>
      <point x="613" y="396"/>
      <point x="613" y="274" type="curve" smooth="yes"/>
      <point x="613" y="95"/>
      <point x="503" y="-11"/>
      <point x="313" y="-11" type="curve" smooth="yes"/>
      <point x="212" y="-11"/>
      <point x="102" y="18"/>
      <point x="16" y="86" type="curve"/>
      <point x="105" y="198" type="line"/>
      <point x="164" y="156"/>
      <point x="239" y="124"/>
      <point x="315" y="124" type="curve" smooth="yes"/>
      <point x="409" y="124"/>
      <point x="468" y="166"/>
      <point x="468" y="247" type="curve" smooth="yes"/>
      <point x="468" y="302"/>
      <point x="434" y="343"/>
      <point x="345" y="343" type="curve" smooth="yes"/>
      <point x="283" y="343"/>
      <point x="240" y="313"/>
      <point x="224" y="301" type="curve"/>
      <point x="100" y="350" type="line"/>
      <point x="185" y="700" type="line"/>
    </contour>
  </outline>
</glyph>
<glyph name="six" format="1">
  <advance width="659"/>
  <unicode hex="0036"/>
  <outline>
    <contour>
      <point x="616" y="261" type="curve" smooth="yes"/>
      <point x="616" y="81"/>
      <point x="477" y="-11"/>
      <point x="311" y="-11" type="curve" smooth="yes"/>
      <point x="143" y="-11"/>
      <point x="43" y="75"/>
      <point x="43" y="232" type="curve" smooth="yes"/>
      <point x="43" y="443"/>
      <point x="218" y="715"/>
      <point x="594" y="711" type="curve"/>
      <point x="570" y="577" type="line"/>
      <point x="414" y="574"/>
      <point x="294" y="518"/>
      <point x="240" y="411" type="curve"/>
      <point x="280" y="439"/>
      <point x="320" y="452"/>
      <point x="385" y="452" type="curve" smooth="yes"/>
      <point x="518" y="452"/>
      <point x="616" y="388"/>
    </contour>
    <contour>
      <point x="470" y="234" type="curve" smooth="yes"/>
      <point x="470" y="286"/>
      <point x="431" y="328"/>
      <point x="327" y="328" type="curve" smooth="yes"/>
      <point x="235" y="328"/>
      <point x="184" y="282"/>
      <point x="184" y="211" type="curve" smooth="yes"/>
      <point x="184" y="149"/>
      <point x="238" y="119"/>
      <point x="324" y="119" type="curve" smooth="yes"/>
      <point x="416" y="119"/>
      <point x="470" y="163"/>
    </contour>
  </outline>
</glyph>
<glyph name="seven" format="1">
  <advance width="627"/>
  <unicode hex="0037"/>
  <outline>
    <contour>
      <point x="642" y="700" type="line"/>
      <point x="619" y="565" type="line"/>
      <point x="464" y="454"/>
      <point x="340" y="252"/>
      <point x="287" y="0" type="curve"/>
      <point x="144" y="0" type="line"/>
      <point x="193" y="242"/>
      <point x="289" y="426"/>
      <point x="454" y="567" type="curve"/>
      <point x="98" y="567" type="line"/>
      <point x="121" y="700" type="line"/>
    </contour>
  </outline>
</glyph>
<glyph name="eight" format="1">
  <advance width="698"/>
  <unicode hex="0038"/>
  <outline>
    <contour>
      <point x="657" y="532" type="curve" smooth="yes"/>
      <point x="657" y="444"/>
      <point x="613" y="399"/>
      <point x="550" y="370" type="curve"/>
      <point x="608" y="337"/>
      <point x="636" y="287"/>
      <point x="636" y="225" type="curve" smooth="yes"/>
      <point x="636" y="80"/>
      <point x="523" y="-11"/>
      <point x="340" y="-11" type="curve" smooth="yes"/>
      <point x="156" y="-11"/>
      <point x="45" y="68"/>
      <point x="45" y="192" type="curve" smooth="yes"/>
      <point x="45" y="289"/>
      <point x="103" y="357"/>
      <point x="190" y="390" type="curve"/>
      <point x="151" y="417"/>
      <point x="129" y="460"/>
      <point x="129" y="504" type="curve" smooth="yes"/>
      <point x="129" y="634"/>
      <point x="245" y="711"/>
      <point x="403" y="711" type="curve" smooth="yes"/>
      <point x="555" y="711"/>
      <point x="657" y="642"/>
    </contour>
    <contour>
      <point x="515" y="511" type="curve" smooth="yes"/>
      <point x="515" y="556"/>
      <point x="485" y="590"/>
      <point x="390" y="590" type="curve" smooth="yes"/>
      <point x="310" y="590"/>
      <point x="271" y="550"/>
      <point x="271" y="505" type="curve" smooth="yes"/>
      <point x="271" y="463"/>
      <point x="313" y="427"/>
      <point x="395" y="427" type="curve" smooth="yes"/>
      <point x="480" y="427"/>
      <point x="515" y="465"/>
    </contour>
    <contour>
      <point x="494" y="218" type="curve" smooth="yes"/>
      <point x="494" y="278"/>
      <point x="436" y="312"/>
      <point x="330" y="312" type="curve" smooth="yes"/>
      <point x="238" y="312"/>
      <point x="189" y="270"/>
      <point x="189" y="210" type="curve" smooth="yes"/>
      <point x="189" y="148"/>
      <point x="250" y="112"/>
      <point x="340" y="112" type="curve" smooth="yes"/>
      <point x="443" y="112"/>
      <point x="494" y="154"/>
    </contour>
  </outline>
</glyph>
<glyph name="nine" format="1">
  <advance width="659"/>
  <unicode hex="0039"/>
  <outline>
    <contour>
      <point x="77" y="439" type="curve" smooth="yes"/>
      <point x="77" y="619"/>
      <point x="216" y="711"/>
      <point x="382" y="711" type="curve" smooth="yes"/>
      <point x="550" y="711"/>
      <point x="650" y="625"/>
      <point x="650" y="468" type="curve" smooth="yes"/>
      <point x="650" y="257"/>
      <point x="475" y="-15"/>
      <point x="99" y="-11" type="curve"/>
      <point x="123" y="123" type="line"/>
      <point x="279" y="126"/>
      <point x="399" y="182"/>
      <point x="453" y="289" type="curve"/>
      <point x="413" y="261"/>
      <point x="373" y="248"/>
      <point x="308" y="248" type="curve" smooth="yes"/>
      <point x="175" y="248"/>
      <point x="77" y="312"/>
    </contour>
    <contour>
      <point x="223" y="466" type="curve" smooth="yes"/>
      <point x="223" y="414"/>
      <point x="262" y="372"/>
      <point x="366" y="372" type="curve" smooth="yes"/>
      <point x="458" y="372"/>
      <point x="509" y="418"/>
      <point x="509" y="489" type="curve" smooth="yes"/>
      <point x="509" y="551"/>
      <point x="455" y="581"/>
      <point x="369" y="581" type="curve" smooth="yes"/>
      <point x="277" y="581"/>
      <point x="223" y="537"/>
    </contour>
  </outline>
</glyph>
<glyph name="colon" format="1">
  <advance width="272"/>
  <unicode hex="003A"/>
  <outline>
    <contour>
      <point x="261" y="442" type="curve" smooth="yes"/>
      <point x="261" y="391"/>
      <point x="218" y="348"/>
      <point x="167" y="348" type="curve" smooth="yes"/>
      <point x="116" y="348"/>
      <point x="73" y="391"/>
      <point x="73" y="442" type="curve" smooth="yes"/>
      <point x="73" y="493"/>
      <point x="116" y="536"/>
      <point x="167" y="536" type="curve" smooth="yes"/>
      <point x="218" y="536"/>
      <point x="261" y="493"/>
    </contour>
    <contour>
      <point x="198" y="83" type="curve" smooth="yes"/>
      <point x="198" y="32"/>
      <point x="155" y="-11"/>
      <point x="104" y="-11" type="curve" smooth="yes"/>
      <point x="53" y="-11"/>
      <point x="10" y="32"/>
      <point x="10" y="83" type="curve" smooth="yes"/>
      <point x="10" y="134"/>
      <point x="53" y="177"/>
      <point x="104" y="177" type="curve" smooth="yes"/>
      <point x="155" y="177"/>
      <point x="198" y="134"/>
    </contour>
  </outline>
</glyph>
<glyph name="semicolon" format="1">
  <advance width="272"/>
  <unicode hex="003B"/>
  <outline>
    <contour>
      <point x="260" y="442" type="curve" smooth="yes"/>
      <point x="260" y="391"/>
      <point x="217" y="348"/>
      <point x="166" y="348" type="curve" smooth="yes"/>
      <point x="115" y="348"/>
      <point x="72" y="391"/>
      <point x="72" y="442" type="curve" smooth="yes"/>
      <point x="72" y="493"/>
      <point x="115" y="536"/>
      <point x="166" y="536" type="curve" smooth="yes"/>
      <point x="217" y="536"/>
      <point x="260" y="493"/>
    </contour>
    <contour>
      <point x="204" y="169" type="line"/>
      <point x="68" y="-126" type="line"/>
      <point x="-26" y="-126" type="line"/>
      <point x="41" y="169" type="line"/>
    </contour>
  </outline>
</glyph>
<glyph name="less" format="1">
  <advance width="450"/>
  <unicode hex="003C"/>
  <outline>
    <contour>
      <point x="388" y="28" type="line"/>
      <point x="57" y="297" type="line"/>
      <point x="57" y="391" type="line"/>
      <point x="388" y="660" type="line"/>
      <point x="388" y="488" type="line"/>
      <point x="201" y="345" type="line"/>
      <point x="388" y="201" type="line"/>
    </contour>
  </outline>
</glyph>
<glyph name="question" format="1">
  <advance width="580"/>
  <unicode hex="003F"/>
  <outline>
    <contour>
      <point x="589" y="532" type="curve" smooth="yes"/>
      <point x="589" y="425"/>
      <point x="544" y="368"/>
      <point x="428" y="320" type="curve" smooth="yes"/>
      <point x="366" y="294"/>
      <point x="337" y="270"/>
      <point x="329" y="220" type="curve"/>
      <point x="192" y="220" type="line"/>
      <point x="204" y="337"/>
      <point x="251" y="374"/>
      <point x="346" y="411" type="curve" smooth="yes"/>
      <point x="413" y="437"/>
      <point x="445" y="460"/>
      <point x="445" y="504" type="curve" smooth="yes"/>
      <point x="445" y="545"/>
      <point x="408" y="574"/>
      <point x="345" y="574" type="curve" smooth="yes"/>
      <point x="286" y="574"/>
      <point x="214" y="552"/>
      <point x="152" y="501" type="curve"/>
      <point x="81" y="611" type="line"/>
      <point x="162" y="676"/>
      <point x="258" y="711"/>
      <point x="361" y="711" type="curve" smooth="yes"/>
      <point x="517" y="711"/>
      <point x="589" y="627"/>
    </contour>
    <contour>
      <point x="320" y="74" type="curve" smooth="yes"/>
      <point x="320" y="28"/>
      <point x="281" y="-11"/>
      <point x="235" y="-11" type="curve" smooth="yes"/>
      <point x="189" y="-11"/>
      <point x="150" y="28"/>
      <point x="150" y="74" type="curve" smooth="yes"/>
      <point x="150" y="120"/>
      <point x="189" y="159"/>
      <point x="235" y="159" type="curve" smooth="yes"/>
      <point x="281" y="159"/>
      <point x="320" y="120"/>
    </contour>
  </outline>
</glyph>
<glyph name="at" format="1">
  <advance width="836"/>
  <unicode hex="0040"/>
  <outline>
    <contour>
      <point x="779" y="360" type="curve" smooth="yes"/>
      <point x="779" y="211"/>
      <point x="716" y="154"/>
      <point x="628" y="154" type="curve" smooth="yes"/>
      <point x="567" y="154"/>
      <point x="536" y="175"/>
      <point x="511" y="209" type="curve"/>
      <point x="480" y="176"/>
      <point x="445" y="153"/>
      <point x="383" y="153" type="curve" smooth="yes"/>
      <point x="311" y="153"/>
      <point x="239" y="197"/>
      <point x="239" y="291" type="curve" smooth="yes"/>
      <point x="239" y="376"/>
      <point x="308" y="419"/>
      <point x="396" y="419" type="curve" smooth="yes"/>
      <point x="434" y="419"/>
      <point x="453" y="411"/>
      <point x="474" y="400" type="curve"/>
      <point x="474" y="425" type="line" smooth="yes"/>
      <point x="474" y="455"/>
      <point x="455" y="479"/>
      <point x="415" y="479" type="curve" smooth="yes"/>
      <point x="368" y="479"/>
      <point x="343" y="471"/>
      <point x="308" y="453" type="curve"/>
      <point x="271" y="519" type="line"/>
      <point x="315" y="545"/>
      <point x="353" y="558"/>
      <point x="415" y="558" type="curve" smooth="yes"/>
      <point x="508" y="558"/>
      <point x="572" y="510"/>
      <point x="572" y="423" type="curve" smooth="yes"/>
      <point x="572" y="280" type="line" smooth="yes"/>
      <point x="572" y="242"/>
      <point x="589" y="213"/>
      <point x="634" y="213" type="curve" smooth="yes"/>
      <point x="696" y="213"/>
      <point x="721" y="267"/>
      <point x="721" y="361" type="curve" smooth="yes"/>
      <point x="721" y="520"/>
      <point x="592" y="654"/>
      <point x="418" y="654" type="curve" smooth="yes"/>
      <point x="243" y="654"/>
      <point x="115" y="525"/>
      <point x="115" y="351" type="curve" smooth="yes"/>
      <point x="115" y="176"/>
      <point x="243" y="47"/>
      <point x="418" y="47" type="curve" smooth="yes"/>
      <point x="463" y="47"/>
      <point x="503" y="54"/>
      <point x="548" y="76" type="curve"/>
      <point x="572" y="23" type="line"/>
      <point x="515" y="-3"/>
      <point x="475" y="-11"/>
      <point x="418" y="-11" type="curve" smooth="yes"/>
      <point x="209" y="-11"/>
      <point x="57" y="141"/>
      <point x="57" y="350" type="curve" smooth="yes"/>
      <point x="57" y="559"/>
      <point x="209" y="711"/>
      <point x="418" y="711" type="curve" smooth="yes"/>
      <point x="631" y="711"/>
      <point x="779" y="550"/>
    </contour>
    <contour>
      <point x="474" y="275" type="curve"/>
      <point x="474" y="326" type="line"/>
      <point x="455" y="337"/>
      <point x="437" y="344"/>
      <point x="399" y="344" type="curve" smooth="yes"/>
      <point x="358" y="344"/>
      <point x="336" y="325"/>
      <point x="336" y="291" type="curve" smooth="yes"/>
      <point x="336" y="262"/>
      <point x="353" y="236"/>
      <point x="399" y="236" type="curve" smooth="yes"/>
      <point x="434" y="236"/>
      <point x="462" y="254"/>
    </contour>
  </outline>
</glyph>
<glyph name="A" format="1">
  <advance width="746"/>
  <unicode hex="0041"/>
  <outline>
    <contour>
      <point x="661" y="0" type="line"/>
      <point x="512" y="0" type="line"/>
      <point x="485" y="156" type="line"/>
      <point x="232" y="156" type="line"/>
      <point x="150" y="0" type="line"/>
      <point x="-5" y="0" type="line"/>
      <point x="384" y="700" type="line"/>
      <point x="520" y="700" type="line"/>
    </contour>
    <contour>
      <point x="461" y="289" type="line"/>
      <point x="439" y="416" type="line" smooth="yes"/>
      <point x="432" y="457"/>
      <point x="426" y="499"/>
      <point x="423" y="525" type="curve"/>
      <point x="412" y="499"/>
      <point x="391" y="458"/>
      <point x="369" y="416" type="curve" smooth="yes"/>
      <point x="302" y="289" type="line"/>
    </contour>
  </outline>
</glyph>
<glyph name="B" format="1">
  <advance width="706"/>
  <unicode hex="0042"/>
  <outline>
    <contour>
      <point x="678" y="537" type="curve" smooth="yes"/>
      <point x="678" y="449"/>
      <point x="627" y="398"/>
      <point x="576" y="370" type="curve"/>
      <point x="621" y="342"/>
      <point x="650" y="296"/>
      <point x="650" y="236" type="curve" smooth="yes"/>
      <point x="650" y="84"/>
      <point x="536" y="0"/>
      <point x="372" y="0" type="curve" smooth="yes"/>
      <point x="44" y="0" type="line"/>
      <point x="168" y="700" type="line"/>
      <point x="461" y="700" type="line" smooth="yes"/>
      <point x="602" y="700"/>
      <point x="678" y="634"/>
    </contour>
    <contour>
      <point x="532" y="515" type="curve" smooth="yes"/>
      <point x="532" y="551"/>
      <point x="506" y="571"/>
      <point x="445" y="571" type="curve" smooth="yes"/>
      <point x="282" y="571" type="line"/>
      <point x="258" y="438" type="line"/>
      <point x="444" y="438" type="line" smooth="yes"/>
      <point x="498" y="438"/>
      <point x="532" y="464"/>
    </contour>
    <contour>
      <point x="505" y="234" type="curve" smooth="yes"/>
      <point x="505" y="288"/>
      <point x="471" y="314"/>
      <point x="399" y="314" type="curve" smooth="yes"/>
      <point x="237" y="314" type="line"/>
      <point x="205" y="133" type="line"/>
      <point x="392" y="133" type="line" smooth="yes"/>
      <point x="459" y="133"/>
      <point x="505" y="169"/>
    </contour>
  </outline>
</glyph>
<glyph name="C" format="1">
  <advance width="666"/>
  <unicode hex="0043"/>
  <outline>
    <contour>
      <point x="666" y="551" type="curve"/>
      <point x="530" y="481" type="line"/>
      <point x="501" y="535"/>
      <point x="467" y="573"/>
      <point x="395" y="573" type="curve" smooth="yes"/>
      <point x="282" y="573"/>
      <point x="205" y="441"/>
      <point x="205" y="297" type="curve" smooth="yes"/>
      <point x="205" y="183"/>
      <point x="263" y="128"/>
      <point x="343" y="128" type="curve" smooth="yes"/>
      <point x="398" y="128"/>
      <point x="440" y="159"/>
      <point x="482" y="216" type="curve"/>
      <point x="594" y="135" type="line"/>
      <point x="520" y="35"/>
      <point x="439" y="-11"/>
      <point x="328" y="-11" type="curve" smooth="yes"/>
      <point x="194" y="-11"/>
      <point x="59" y="69"/>
      <point x="59" y="277" type="curve" smooth="yes"/>
      <point x="59" y="540"/>
      <point x="220" y="711"/>
      <point x="410" y="711" type="curve" smooth="yes"/>
      <point x="549" y="711"/>
      <point x="618" y="654"/>
    </contour>
  </outline>
</glyph>
<glyph name="D" format="1">
  <advance width="703"/>
  <unicode hex="0044"/>
  <outline>
    <contour>
      <point x="678" y="424" type="curve" smooth="yes"/>
      <point x="678" y="142"/>
      <point x="507" y="0"/>
      <point x="264" y="0" type="curve" smooth="yes"/>
      <point x="44" y="0" type="line"/>
      <point x="168" y="700" type="line"/>
      <point x="328" y="700" type="line" smooth="yes"/>
      <point x="579" y="700"/>
      <point x="678" y="592"/>
    </contour>
    <contour>
      <point x="531" y="398" type="curve" smooth="yes"/>
      <point x="531" y="502"/>
      <point x="474" y="564"/>
      <point x="325" y="564" type="curve" smooth="yes"/>
      <point x="284" y="564" type="line"/>
      <point x="208" y="136" type="line"/>
      <point x="300" y="136" type="line" smooth="yes"/>
      <point x="441" y="136"/>
      <point x="531" y="233"/>
    </contour>
  </outline>
</glyph>
<glyph name="E" format="1">
  <advance width="646"/>
  <unicode hex="0045"/>
  <outline>
    <contour>
      <point x="649" y="700" type="line"/>
      <point x="625" y="563" type="line"/>
      <point x="283" y="563" type="line"/>
      <point x="262" y="442" type="line"/>
      <point x="459" y="442" type="line"/>
      <point x="435" y="306" type="line"/>
      <point x="238" y="306" type="line"/>
      <point x="208" y="137" type="line"/>
      <point x="565" y="137" type="line"/>
      <point x="541" y="0" type="line"/>
      <point x="44" y="0" type="line"/>
      <point x="167" y="700" type="line"/>
    </contour>
  </outline>
</glyph>
<glyph name="F" format="1">
  <advance width="621"/>
  <unicode hex="0046"/>
  <outline>
    <contour>
      <point x="664" y="700" type="line"/>
      <point x="640" y="563" type="line"/>
      <point x="283" y="563" type="line"/>
      <point x="260" y="431" type="line"/>
      <point x="467" y="431" type="line"/>
      <point x="443" y="295" type="line"/>
      <point x="236" y="295" type="line"/>
      <point x="184" y="0" type="line"/>
      <point x="44" y="0" type="line"/>
      <point x="167" y="700" type="line"/>
    </contour>
  </outline>
</glyph>
<glyph name="G" format="1">
  <advance width="694"/>
  <unicode hex="0047"/>
  <outline>
    <contour>
      <point x="673" y="529" type="curve"/>
      <point x="531" y="471" type="line"/>
      <point x="508" y="533"/>
      <point x="472" y="572"/>
      <point x="406" y="572" type="curve" smooth="yes"/>
      <point x="286" y="572"/>
      <point x="207" y="442"/>
      <point x="207" y="300" type="curve" smooth="yes"/>
      <point x="207" y="182"/>
      <point x="271" y="125"/>
      <point x="355" y="125" type="curve" smooth="yes"/>
      <point x="421" y="125"/>
      <point x="465" y="161"/>
      <point x="482" y="228" type="curve" smooth="yes"/>
      <point x="483" y="232" type="line"/>
      <point x="384" y="232" type="line"/>
      <point x="407" y="363" type="line"/>
      <point x="655" y="363" type="line"/>
      <point x="644" y="298" type="line" smooth="yes"/>
      <point x="607" y="81"/>
      <point x="505" y="-11"/>
      <point x="339" y="-11" type="curve" smooth="yes"/>
      <point x="183" y="-11"/>
      <point x="61" y="92"/>
      <point x="61" y="280" type="curve" smooth="yes"/>
      <point x="61" y="529"/>
      <point x="213" y="711"/>
      <point x="415" y="711" type="curve" smooth="yes"/>
      <point x="557" y="711"/>
      <point x="636" y="646"/>
    </contour>
  </outline>
</glyph>
<glyph name="H" format="1">
  <advance width="743"/>
  <unicode hex="0048"/>
  <outline>
    <contour>
      <point x="730" y="700" type="line"/>
      <point x="607" y="0" type="line"/>
      <point x="467" y="0" type="line"/>
      <point x="518" y="294" type="line"/>
      <point x="235" y="294" type="line"/>
      <point x="184" y="0" type="line"/>
      <point x="44" y="0" type="line"/>
      <point x="167" y="700" type="line"/>
      <point x="307" y="700" type="line"/>
      <point x="260" y="432" type="line"/>
      <point x="543" y="432" type="line"/>
      <point x="590" y="700" type="line"/>
    </contour>
  </outline>
</glyph>
<glyph name="I" format="1">
  <advance width="340"/>
  <unicode hex="0049"/>
  <outline>
    <contour>
      <point x="317" y="700" type="line"/>
      <point x="193" y="0" type="line"/>
      <point x="53" y="0" type="line"/>
      <point x="177" y="700" type="line"/>
    </contour>
  </outline>
</glyph>
<glyph name="J" format="1">
  <advance width="646"/>
  <unicode hex="004A"/>
  <outline>
    <contour>
      <point x="637" y="700" type="line"/>
      <point x="558" y="252" type="line" smooth="yes"/>
      <point x="528" y="82"/>
      <point x="440" y="-11"/>
      <point x="269" y="-11" type="curve" smooth="yes"/>
      <point x="128" y="-11"/>
      <point x="49" y="76"/>
      <point x="25" y="208" type="curve"/>
      <point x="160" y="240" type="line"/>
      <point x="178" y="168"/>
      <point x="209" y="128"/>
      <point x="283" y="128" type="curve" smooth="yes"/>
      <point x="364" y="128"/>
      <point x="404" y="178"/>
      <point x="424" y="288" type="curve" smooth="yes"/>
      <point x="497" y="700" type="line"/>
    </contour>
  </outline>
</glyph>
<glyph name="K" format="1">
  <advance width="716"/>
  <unicode hex="004B"/>
  <outline>
    <contour>
      <point x="721" y="700" type="line"/>
      <point x="478" y="455" type="line"/>
      <point x="650" y="0" type="line"/>
      <point x="502" y="0" type="line"/>
      <point x="371" y="347" type="line"/>
      <point x="217" y="192" type="line"/>
      <point x="184" y="0" type="line"/>
      <point x="44" y="0" type="line"/>
      <point x="167" y="700" type="line"/>
      <point x="307" y="700" type="line"/>
      <point x="272" y="501" type="line" smooth="yes"/>
      <point x="267" y="475"/>
      <point x="255" y="404"/>
      <point x="250" y="386" type="curve"/>
      <point x="271" y="412"/>
      <point x="295" y="435"/>
      <point x="318" y="459" type="curve" smooth="yes"/>
      <point x="552" y="700" type="line"/>
    </contour>
  </outline>
</glyph>
<glyph name="L" format="1">
  <advance width="616"/>
  <unicode hex="004C"/>
  <outline>
    <contour>
      <point x="555" y="138" type="line"/>
      <point x="531" y="0" type="line"/>
      <point x="44" y="0" type="line"/>
      <point x="167" y="700" type="line"/>
      <point x="307" y="700" type="line"/>
      <point x="208" y="138" type="line"/>
    </contour>
  </outline>
</glyph>
<glyph name="M" format="1">
  <advance width="831"/>
  <unicode hex="004D"/>
  <outline>
    <contour>
      <point x="818" y="700" type="line"/>
      <point x="695" y="0" type="line"/>
      <point x="555" y="0" type="line"/>
      <point x="600" y="257" type="line" smooth="yes"/>
      <point x="607" y="295"/>
      <point x="624" y="384"/>
      <point x="629" y="411" type="curve"/>
      <point x="615" y="385"/>
      <point x="587" y="335"/>
      <point x="562" y="295" type="curve" smooth="yes"/>
      <point x="367" y="-16" type="line"/>
      <point x="278" y="295" type="line" smooth="yes"/>
      <point x="267" y="334"/>
      <point x="257" y="385"/>
      <point x="251" y="411" type="curve"/>
      <point x="246" y="384"/>
      <point x="233" y="295"/>
      <point x="226" y="257" type="curve" smooth="yes"/>
      <point x="181" y="0" type="line"/>
      <point x="44" y="0" type="line"/>
      <point x="167" y="700" type="line"/>
      <point x="302" y="700" type="line"/>
      <point x="385" y="383" type="line" smooth="yes"/>
      <point x="397" y="339"/>
      <point x="408" y="291"/>
      <point x="413" y="266" type="curve"/>
      <point x="426" y="292"/>
      <point x="454" y="343"/>
      <point x="479" y="383" type="curve" smooth="yes"/>
      <point x="675" y="700" type="line"/>
    </contour>
  </outline>
</glyph>
<glyph name="N" format="1">
  <advance width="743"/>
  <unicode hex="004E"/>
  <outline>
    <contour>
      <point x="730" y="700" type="line"/>
      <point x="607" y="0" type="line"/>
      <point x="482" y="0" type="line"/>
      <point x="298" y="396" type="line" smooth="yes"/>
      <point x="286" y="422"/>
      <point x="269" y="457"/>
      <point x="263" y="475" type="curve"/>
      <point x="259" y="449"/>
      <point x="245" y="361"/>
      <point x="238" y="322" type="curve" smooth="yes"/>
      <point x="182" y="0" type="line"/>
      <point x="44" y="0" type="line"/>
      <point x="167" y="700" type="line"/>
      <point x="301" y="700" type="line"/>
      <point x="482" y="316" type="line" smooth="yes"/>
      <point x="494" y="290"/>
      <point x="507" y="255"/>
      <point x="513" y="237" type="curve"/>
      <point x="518" y="263"/>
      <point x="531" y="351"/>
      <point x="538" y="390" type="curve" smooth="yes"/>
      <point x="592" y="700" type="line"/>
    </contour>
  </outline>
</glyph>
<glyph name="O" format="1">
  <advance width="715"/>
  <unicode hex="004F"/>
  <outline>
    <contour>
      <point x="688" y="423" type="curve" smooth="yes"/>
      <point x="688" y="187"/>
      <point x="545" y="-11"/>
      <point x="336" y="-11" type="curve" smooth="yes"/>
      <point x="164" y="-11"/>
      <point x="59" y="97"/>
      <point x="59" y="277" type="curve" smooth="yes"/>
      <point x="59" y="513"/>
      <point x="202" y="711"/>
      <point x="411" y="711" type="curve" smooth="yes"/>
      <point x="583" y="711"/>
      <point x="688" y="603"/>
    </contour>
    <contour>
      <point x="542" y="403" type="curve" smooth="yes"/>
      <point x="542" y="519"/>
      <point x="480" y="572"/>
      <point x="401" y="572" type="curve" smooth="yes"/>
      <point x="293" y="572"/>
      <point x="205" y="462"/>
      <point x="205" y="297" type="curve" smooth="yes"/>
      <point x="205" y="181"/>
      <point x="267" y="128"/>
      <point x="346" y="128" type="curve" smooth="yes"/>
      <point x="454" y="128"/>
      <point x="542" y="238"/>
    </contour>
  </outline>
</glyph>
<glyph name="P" format="1">
  <advance width="676"/>
  <unicode hex="0050"/>
  <outline>
    <contour>
      <point x="676" y="510" type="curve" smooth="yes"/>
      <point x="676" y="346"/>
      <point x="574" y="248"/>
      <point x="390" y="248" type="curve" smooth="yes"/>
      <point x="228" y="248" type="line"/>
      <point x="184" y="0" type="line"/>
      <point x="44" y="0" type="line"/>
      <point x="168" y="700" type="line"/>
      <point x="437" y="700" type="line" smooth="yes"/>
      <point x="592" y="700"/>
      <point x="676" y="629"/>
    </contour>
    <contour>
      <point x="529" y="488" type="curve" smooth="yes"/>
      <point x="529" y="532"/>
      <point x="504" y="564"/>
      <point x="429" y="564" type="curve" smooth="yes"/>
      <point x="284" y="564" type="line"/>
      <point x="252" y="384" type="line"/>
      <point x="415" y="384" type="line" smooth="yes"/>
      <point x="486" y="384"/>
      <point x="529" y="424"/>
    </contour>
  </outline>
</glyph>
<glyph name="Q" format="1">
  <advance width="710"/>
  <unicode hex="0051"/>
  <outline>
    <contour>
      <point x="537" y="67" type="curve"/>
      <point x="572" y="-6" type="line"/>
      <point x="453" y="-68" type="line"/>
      <point x="419" y="3" type="line"/>
      <point x="393" y="-5"/>
      <point x="365" y="-9"/>
      <point x="336" y="-9" type="curve" smooth="yes"/>
      <point x="164" y="-9"/>
      <point x="59" y="97"/>
      <point x="59" y="277" type="curve" smooth="yes"/>
      <point x="59" y="513"/>
      <point x="202" y="711"/>
      <point x="411" y="711" type="curve" smooth="yes"/>
      <point x="583" y="711"/>
      <point x="688" y="603"/>
      <point x="688" y="423" type="curve" smooth="yes"/>
      <point x="688" y="276"/>
      <point x="629" y="145"/>
    </contour>
    <contour>
      <point x="360" y="125" type="curve"/>
      <point x="324" y="199" type="line"/>
      <point x="443" y="261" type="line"/>
      <point x="478" y="187" type="line"/>
      <point x="517" y="234"/>
      <point x="542" y="306"/>
      <point x="542" y="403" type="curve" smooth="yes"/>
      <point x="542" y="519"/>
      <point x="480" y="572"/>
      <point x="401" y="572" type="curve" smooth="yes"/>
      <point x="293" y="572"/>
      <point x="205" y="462"/>
      <point x="205" y="297" type="curve" smooth="yes"/>
      <point x="205" y="181"/>
      <point x="267" y="124"/>
      <point x="346" y="124" type="curve" smooth="yes"/>
      <point x="351" y="124"/>
      <point x="355" y="124"/>
    </contour>
  </outline>
</glyph>
<glyph name="R" format="1">
  <advance width="710"/>
  <unicode hex="0052"/>
  <outline>
    <contour>
      <point x="696" y="509" type="curve" smooth="yes"/>
      <point x="696" y="375"/>
      <point x="616" y="300"/>
      <point x="521" y="272" type="curve"/>
      <point x="607" y="0" type="line"/>
      <point x="457" y="0" type="line"/>
      <point x="376" y="252" type="line"/>
      <point x="228" y="252" type="line"/>
      <point x="184" y="0" type="line"/>
      <point x="44" y="0" type="line"/>
      <point x="167" y="700" type="line"/>
      <point x="460" y="700" type="line" smooth="yes"/>
      <point x="617" y="700"/>
      <point x="696" y="627"/>
    </contour>
    <contour>
      <point x="549" y="490" type="curve" smooth="yes"/>
      <point x="549" y="539"/>
      <point x="514" y="564"/>
      <point x="446" y="564" type="curve" smooth="yes"/>
      <point x="283" y="564" type="line"/>
      <point x="252" y="384" type="line"/>
      <point x="436" y="384" type="line" smooth="yes"/>
      <point x="491" y="384"/>
      <point x="549" y="411"/>
    </contour>
  </outline>
</glyph>
<glyph name="S" format="1">
  <advance width="657"/>
  <unicode hex="0053"/>
  <outline>
    <contour>
      <point x="640" y="582" type="curve"/>
      <point x="527" y="495" type="line"/>
      <point x="490" y="541"/>
      <point x="440" y="580"/>
      <point x="366" y="580" type="curve" smooth="yes"/>
      <point x="293" y="580"/>
      <point x="264" y="549"/>
      <point x="264" y="511" type="curve" smooth="yes"/>
      <point x="264" y="471"/>
      <point x="293" y="455"/>
      <point x="392" y="423" type="curve" smooth="yes"/>
      <point x="489" y="391"/>
      <point x="591" y="341"/>
      <point x="591" y="224" type="curve" smooth="yes"/>
      <point x="591" y="65"/>
      <point x="472" y="-11"/>
      <point x="312" y="-11" type="curve" smooth="yes"/>
      <point x="170" y="-11"/>
      <point x="71" y="57"/>
      <point x="26" y="134" type="curve"/>
      <point x="140" y="215" type="line"/>
      <point x="191" y="146"/>
      <point x="261" y="123"/>
      <point x="333" y="123" type="curve" smooth="yes"/>
      <point x="393" y="123"/>
      <point x="444" y="146"/>
      <point x="444" y="207" type="curve" smooth="yes"/>
      <point x="444" y="244"/>
      <point x="409" y="269"/>
      <point x="303" y="302" type="curve" smooth="yes"/>
      <point x="196" y="336"/>
      <point x="119" y="388"/>
      <point x="119" y="490" type="curve" smooth="yes"/>
      <point x="119" y="646"/>
      <point x="243" y="711"/>
      <point x="382" y="711" type="curve" smooth="yes"/>
      <point x="506" y="711"/>
      <point x="588" y="655"/>
    </contour>
  </outline>
</glyph>
<glyph name="T" format="1">
  <advance width="628"/>
  <unicode hex="0054"/>
  <outline>
    <contour>
      <point x="661" y="700" type="line"/>
      <point x="637" y="562" type="line"/>
      <point x="438" y="562" type="line"/>
      <point x="339" y="0" type="line"/>
      <point x="199" y="0" type="line"/>
      <point x="298" y="562" type="line"/>
      <point x="99" y="562" type="line"/>
      <point x="123" y="700" type="line"/>
    </contour>
  </outline>
</glyph>
<glyph name="U" format="1">
  <advance width="733"/>
  <unicode hex="0055"/>
  <outline>
    <contour>
      <point x="725" y="700" type="line"/>
      <point x="653" y="290" type="line" smooth="yes"/>
      <point x="618" y="93"/>
      <point x="529" y="-11"/>
      <point x="341" y="-11" type="curve" smooth="yes"/>
      <point x="193" y="-11"/>
      <point x="88" y="64"/>
      <point x="88" y="230" type="curve" smooth="yes"/>
      <point x="88" y="254"/>
      <point x="91" y="295"/>
      <point x="96" y="323" type="curve" smooth="yes"/>
      <point x="162" y="700" type="line"/>
      <point x="302" y="700" type="line"/>
      <point x="238" y="338" type="line" smooth="yes"/>
      <point x="234" y="314"/>
      <point x="230" y="281"/>
      <point x="230" y="247" type="curve" smooth="yes"/>
      <point x="230" y="166"/>
      <point x="274" y="126"/>
      <point x="358" y="126" type="curve" smooth="yes"/>
      <point x="439" y="126"/>
      <point x="493" y="174"/>
      <point x="514" y="292" type="curve" smooth="yes"/>
      <point x="585" y="700" type="line"/>
    </contour>
  </outline>
</glyph>
<glyph name="V" format="1">
  <advance width="710"/>
  <unicode hex="0056"/>
  <outline>
    <contour>
      <point x="744" y="700" type="line"/>
      <point x="373" y="0" type="line"/>
      <point x="238" y="0" type="line"/>
      <point x="117" y="700" type="line"/>
      <point x="264" y="700" type="line"/>
      <point x="323" y="293" type="line" smooth="yes"/>
      <point x="329" y="254"/>
      <point x="334" y="203"/>
      <point x="336" y="178" type="curve"/>
      <point x="344" y="199"/>
      <point x="369" y="254"/>
      <point x="389" y="295" type="curve" smooth="yes"/>
      <point x="592" y="700" type="line"/>
    </contour>
  </outline>
</glyph>
<glyph name="W" format="1">
  <advance width="875"/>
  <unicode hex="0057"/>
  <outline>
    <contour>
      <point x="905" y="700" type="line"/>
      <point x="637" y="0" type="line"/>
      <point x="499" y="0" type="line"/>
      <point x="478" y="360" type="line" smooth="yes"/>
      <point x="476" y="402"/>
      <point x="474" y="454"/>
      <point x="475" y="480" type="curve"/>
      <point x="467" y="454"/>
      <point x="448" y="401"/>
      <point x="431" y="360" type="curve" smooth="yes"/>
      <point x="282" y="0" type="line"/>
      <point x="150" y="0" type="line"/>
      <point x="128" y="700" type="line"/>
      <point x="272" y="700" type="line"/>
      <point x="272" y="359" type="line" smooth="yes"/>
      <point x="272" y="325"/>
      <point x="271" y="273"/>
      <point x="269" y="244" type="curve"/>
      <point x="279" y="273"/>
      <point x="299" y="325"/>
      <point x="313" y="359" type="curve" smooth="yes"/>
      <point x="453" y="700" type="line"/>
      <point x="575" y="700" type="line"/>
      <point x="598" y="359" type="line" smooth="yes"/>
      <point x="600" y="323"/>
      <point x="600" y="273"/>
      <point x="600" y="244" type="curve"/>
      <point x="608" y="273"/>
      <point x="625" y="326"/>
      <point x="637" y="359" type="curve" smooth="yes"/>
      <point x="759" y="700" type="line"/>
    </contour>
  </outline>
</glyph>
<glyph name="X" format="1">
  <advance width="702"/>
  <unicode hex="0058"/>
  <outline>
    <contour>
      <point x="344" y="245" type="curve"/>
      <point x="326" y="217"/>
      <point x="303" y="188"/>
      <point x="277" y="155" type="curve" smooth="yes"/>
      <point x="155" y="0" type="line"/>
      <point x="-2" y="0" type="line"/>
      <point x="287" y="362" type="line"/>
      <point x="129" y="700" type="line"/>
      <point x="280" y="700" type="line"/>
      <point x="348" y="553" type="line" smooth="yes"/>
      <point x="359" y="530"/>
      <point x="370" y="503"/>
      <point x="379" y="475" type="curve"/>
      <point x="396" y="502"/>
      <point x="412" y="524"/>
      <point x="431" y="548" type="curve" smooth="yes"/>
      <point x="552" y="700" type="line"/>
      <point x="709" y="700" type="line"/>
      <point x="436" y="358" type="line"/>
      <point x="603" y="0" type="line"/>
      <point x="452" y="0" type="line"/>
      <point x="385" y="146" type="line" smooth="yes"/>
      <point x="368" y="183"/>
      <point x="354" y="216"/>
    </contour>
  </outline>
</glyph>
<glyph name="Y" format="1">
  <advance width="710"/>
  <unicode hex="0059"/>
  <outline>
    <contour>
      <point x="765" y="700" type="line"/>
      <point x="428" y="277" type="line"/>
      <point x="379" y="0" type="line"/>
      <point x="239" y="0" type="line"/>
      <point x="287" y="274" type="line"/>
      <point x="99" y="700" type="line"/>
      <point x="251" y="700" type="line"/>
      <point x="320" y="534" type="line" smooth="yes"/>
      <point x="337" y="492"/>
      <point x="366" y="419"/>
      <point x="374" y="393" type="curve"/>
      <point x="390" y="417"/>
      <point x="438" y="488"/>
      <point x="474" y="534" type="curve" smooth="yes"/>
      <point x="603" y="700" type="line"/>
    </contour>
  </outline>
</glyph>
<glyph name="Z" format="1">
  <advance width="684"/>
  <unicode hex="005A"/>
  <outline>
    <contour>
      <point x="689" y="700" type="line"/>
      <point x="667" y="576" type="line"/>
      <point x="313" y="217" type="line" smooth="yes"/>
      <point x="295" y="199"/>
      <point x="240" y="144"/>
      <point x="219" y="126" type="curve"/>
      <point x="247" y="127"/>
      <point x="320" y="128"/>
      <point x="361" y="128" type="curve" smooth="yes"/>
      <point x="593" y="128" type="line"/>
      <point x="570" y="0" type="line"/>
      <point x="22" y="0" type="line"/>
      <point x="44" y="124" type="line"/>
      <point x="401" y="483" type="line" smooth="yes"/>
      <point x="429" y="511"/>
      <point x="474" y="556"/>
      <point x="495" y="574" type="curve"/>
      <point x="467" y="573"/>
      <point x="398" y="572"/>
      <point x="357" y="572" type="curve" smooth="yes"/>
      <point x="143" y="572" type="line"/>
      <point x="166" y="700" type="line"/>
    </contour>
  </outline>
</glyph>
<glyph name="bracketleft" format="1">
  <advance width="411"/>
  <unicode hex="005B"/>
  <outline>
    <contour>
      <point x="425" y="700" type="line"/>
      <point x="406" y="590" type="line"/>
      <point x="288" y="590" type="line"/>
      <point x="184" y="0" type="line"/>
      <point x="302" y="0" type="line"/>
      <point x="283" y="-110" type="line"/>
      <point x="30" y="-110" type="line"/>
      <point x="172" y="700" type="line"/>
    </contour>
  </outline>
</glyph>
<glyph name="backslash" format="1">
  <advance width="470"/>
  <unicode hex="005C"/>
  <outline>
    <contour>
      <point x="404" y="-90" type="line"/>
      <point x="268" y="-90" type="line"/>
      <point x="98" y="790" type="line"/>
      <point x="234" y="790" type="line"/>
    </contour>
  </outline>
</glyph>
<glyph name="bracketright" format="1">
  <advance width="411"/>
  <unicode hex="005D"/>
  <outline>
    <contour>
      <point x="392" y="700" type="line"/>
      <point x="250" y="-110" type="line"/>
      <point x="-3" y="-110" type="line"/>
      <point x="16" y="0" type="line"/>
      <point x="134" y="0" type="line"/>
      <point x="238" y="590" type="line"/>
      <point x="120" y="590" type="line"/>
      <point x="139" y="700" type="line"/>
    </contour>
  </outline>
</glyph>
<glyph name="asciicircum" format="1">
  <advance width="578"/>
  <unicode hex="005E"/>
  <outline>
    <contour>
      <point x="531" y="382" type="line"/>
      <point x="389" y="382" type="line"/>
      <point x="288" y="568" type="line"/>
      <point x="187" y="382" type="line"/>
      <point x="47" y="382" type="line"/>
      <point x="234" y="700" type="line"/>
      <point x="344" y="700" type="line"/>
    </contour>
  </outline>
</glyph>
<glyph name="grave" format="1">
  <advance width="500"/>
  <unicode hex="0060"/>
  <outline>
    <contour>
      <point x="421" y="595" type="line"/>
      <point x="304" y="595" type="line"/>
      <point x="187" y="755" type="line"/>
      <point x="362" y="755" type="line"/>
    </contour>
  </outline>
</glyph>
<glyph name="a" format="1">
  <advance width="552"/>
  <unicode hex="0061"/>
  <outline>
    <contour>
      <point x="507" y="380" type="curve" smooth="yes"/>
      <point x="507" y="366"/>
      <point x="506" y="352"/>
      <point x="503" y="336" type="curve" smooth="yes"/>
      <point x="444" y="0" type="line"/>
      <point x="306" y="0" type="line"/>
      <point x="313" y="35" type="line"/>
      <point x="286" y="10"/>
      <point x="249" y="-11"/>
      <point x="200" y="-11" type="curve" smooth="yes"/>
      <point x="107" y="-11"/>
      <point x="23" y="38"/>
      <point x="23" y="152" type="curve" smooth="yes"/>
      <point x="23" y="270"/>
      <point x="108" y="350"/>
      <point x="240" y="350" type="curve" smooth="yes"/>
      <point x="288" y="350"/>
      <point x="345" y="339"/>
      <point x="364" y="329" type="curve"/>
      <point x="367" y="350" type="line" smooth="yes"/>
      <point x="368" y="356"/>
      <point x="368" y="362"/>
      <point x="368" y="367" type="curve" smooth="yes"/>
      <point x="368" y="404"/>
      <point x="343" y="422"/>
      <point x="277" y="422" type="curve" smooth="yes"/>
      <point x="233" y="422"/>
      <point x="189" y="410"/>
      <point x="158" y="395" type="curve"/>
      <point x="122" y="493" type="line"/>
      <point x="159" y="515"/>
      <point x="229" y="536"/>
      <point x="295" y="536" type="curve" smooth="yes"/>
      <point x="419" y="536"/>
      <point x="507" y="490"/>
    </contour>
    <contour>
      <point x="345" y="220" type="line"/>
      <point x="323" y="232"/>
      <point x="291" y="242"/>
      <point x="246" y="242" type="curve" smooth="yes"/>
      <point x="191" y="242"/>
      <point x="164" y="209"/>
      <point x="164" y="167" type="curve" smooth="yes"/>
      <point x="164" y="127"/>
      <point x="190" y="106"/>
      <point x="240" y="106" type="curve" smooth="yes"/>
      <point x="283" y="106"/>
      <point x="317" y="132"/>
      <point x="333" y="154" type="curve"/>
    </contour>
  </outline>
</glyph>
<glyph name="c" format="1">
  <advance width="533"/>
  <unicode hex="0063"/>
  <outline>
    <contour>
      <point x="527" y="406" type="curve"/>
      <point x="417" y="319" type="line"/>
      <point x="384" y="372"/>
      <point x="353" y="403"/>
      <point x="303" y="403" type="curve" smooth="yes"/>
      <point x="227" y="403"/>
      <point x="176" y="320"/>
      <point x="176" y="234" type="curve" smooth="yes"/>
      <point x="176" y="162"/>
      <point x="215" y="122"/>
      <point x="272" y="122" type="curve" smooth="yes"/>
      <point x="310" y="122"/>
      <point x="349" y="142"/>
      <point x="394" y="182" type="curve"/>
      <point x="472" y="91" type="line"/>
      <point x="397" y="17"/>
      <point x="331" y="-11"/>
      <point x="255" y="-11" type="curve" smooth="yes"/>
      <point x="131" y="-11"/>
      <point x="35" y="77"/>
      <point x="35" y="223" type="curve" smooth="yes"/>
      <point x="35" y="388"/>
      <point x="147" y="536"/>
      <point x="318" y="536" type="curve" smooth="yes"/>
      <point x="427" y="536"/>
      <point x="487" y="481"/>
    </contour>
  </outline>
</glyph>
<glyph name="d" format="1">
  <advance width="558"/>
  <unicode hex="0064"/>
  <outline>
    <contour>
      <point x="33" y="190" type="curve" smooth="yes"/>
      <point x="33" y="369"/>
      <point x="120" y="536"/>
      <point x="277" y="536" type="curve" smooth="yes"/>
      <point x="330" y="536"/>
      <point x="358" y="520"/>
      <point x="392" y="493" type="curve"/>
      <point x="421" y="660" type="line"/>
      <point x="571" y="729" type="line"/>
      <point x="442" y="0" type="line"/>
      <point x="304" y="0" type="line"/>
      <point x="310" y="33" type="line"/>
      <point x="281" y="7"/>
      <point x="248" y="-11"/>
      <point x="206" y="-11" type="curve" smooth="yes"/>
      <point x="95" y="-11"/>
      <point x="33" y="65"/>
    </contour>
    <contour>
      <point x="175" y="213" type="curve" smooth="yes"/>
      <point x="175" y="151"/>
      <point x="201" y="119"/>
      <point x="248" y="119" type="curve" smooth="yes"/>
      <point x="284" y="119"/>
      <point x="311" y="140"/>
      <point x="333" y="163" type="curve"/>
      <point x="368" y="361" type="line"/>
      <point x="342" y="391"/>
      <point x="319" y="406"/>
      <point x="280" y="406" type="curve" smooth="yes"/>
      <point x="215" y="406"/>
      <point x="175" y="318"/>
    </contour>
  </outline>
</glyph>
<glyph name="e" format="1">
  <advance width="534"/>
  <unicode hex="0065"/>
  <outline>
    <contour>
      <point x="497" y="323" type="curve" smooth="yes"/>
      <point x="497" y="289"/>
      <point x="491" y="254"/>
      <point x="481" y="218" type="curve"/>
      <point x="171" y="218" type="line"/>
      <point x="163" y="146"/>
      <point x="221" y="119"/>
      <point x="269" y="119" type="curve" smooth="yes"/>
      <point x="304" y="119"/>
      <point x="339" y="130"/>
      <point x="374" y="154" type="curve"/>
      <point x="441" y="58" type="line"/>
      <point x="378" y="9"/>
      <point x="318" y="-11"/>
      <point x="254" y="-11" type="curve" smooth="yes"/>
      <point x="119" y="-11"/>
      <point x="33" y="75"/>
      <point x="33" y="217" type="curve" smooth="yes"/>
      <point x="33" y="397"/>
      <point x="154" y="536"/>
      <point x="306" y="536" type="curve" smooth="yes"/>
      <point x="438" y="536"/>
      <point x="497" y="440"/>
    </contour>
    <contour>
      <point x="367" y="322" type="line"/>
      <point x="372" y="372"/>
      <point x="348" y="416"/>
      <point x="286" y="416" type="curve" smooth="yes"/>
      <point x="236" y="416"/>
      <point x="205" y="375"/>
      <point x="189" y="322" type="curve"/>
    </contour>
  </outline>
</glyph>
<glyph name="g" format="1">
  <advance width="558"/>
  <unicode hex="0067"/>
  <outline>
    <contour>
      <point x="535" y="525" type="line"/>
      <point x="459" y="89" type="line" smooth="yes"/>
      <point x="429" y="-84"/>
      <point x="385" y="-183"/>
      <point x="181" y="-193" type="curve"/>
      <point x="149" y="-86" type="line"/>
      <point x="263" y="-80"/>
      <point x="297" y="-48"/>
      <point x="310" y="28" type="curve" smooth="yes"/>
      <point x="311" y="34" type="line"/>
      <point x="285" y="8"/>
      <point x="247" y="-11"/>
      <point x="206" y="-11" type="curve" smooth="yes"/>
      <point x="95" y="-11"/>
      <point x="33" y="65"/>
      <point x="33" y="190" type="curve" smooth="yes"/>
      <point x="33" y="369"/>
      <point x="120" y="536"/>
      <point x="277" y="536" type="curve" smooth="yes"/>
      <point x="330" y="536"/>
      <point x="358" y="520"/>
      <point x="392" y="493" type="curve"/>
      <point x="397" y="525" type="line"/>
    </contour>
    <contour>
      <point x="175" y="213" type="curve" smooth="yes"/>
      <point x="175" y="151"/>
      <point x="201" y="119"/>
      <point x="248" y="119" type="curve" smooth="yes"/>
      <point x="284" y="119"/>
      <point x="311" y="140"/>
      <point x="333" y="163" type="curve"/>
      <point x="368" y="361" type="line"/>
      <point x="342" y="391"/>
      <point x="319" y="406"/>
      <point x="280" y="406" type="curve" smooth="yes"/>
      <point x="215" y="406"/>
      <point x="175" y="318"/>
    </contour>
  </outline>
</glyph>
<glyph name="h" format="1">
  <advance width="580"/>
  <unicode hex="0068"/>
  <outline>
    <contour>
      <point x="531" y="373" type="curve" smooth="yes"/>
      <point x="531" y="351"/>
      <point x="529" y="322"/>
      <point x="524" y="296" type="curve" smooth="yes"/>
      <point x="472" y="0" type="line"/>
      <point x="334" y="0" type="line"/>
      <point x="384" y="284" type="line" smooth="yes"/>
      <point x="387" y="302"/>
      <point x="388" y="317"/>
      <point x="388" y="330" type="curve" smooth="yes"/>
      <point x="388" y="381"/>
      <point x="364" y="406"/>
      <point x="315" y="406" type="curve" smooth="yes"/>
      <point x="260" y="406"/>
      <point x="224" y="374"/>
      <point x="209" y="287" type="curve" smooth="yes"/>
      <point x="159" y="0" type="line"/>
      <point x="21" y="0" type="line"/>
      <point x="137" y="660" type="line"/>
      <point x="287" y="729" type="line"/>
      <point x="245" y="490" type="line"/>
      <point x="272" y="515"/>
      <point x="310" y="536"/>
      <point x="364" y="536" type="curve" smooth="yes"/>
      <point x="477" y="536"/>
      <point x="531" y="478"/>
    </contour>
  </outline>
</glyph>
<glyph name="i" format="1">
  <advance width="282"/>
  <unicode hex="0069"/>
  <outline>
    <contour>
      <point x="286" y="647" type="curve" smooth="yes"/>
      <point x="286" y="604"/>
      <point x="250" y="568"/>
      <point x="207" y="568" type="curve" smooth="yes"/>
      <point x="164" y="568"/>
      <point x="128" y="604"/>
      <point x="128" y="647" type="curve" smooth="yes"/>
      <point x="128" y="690"/>
      <point x="164" y="726"/>
      <point x="207" y="726" type="curve" smooth="yes"/>
      <point x="250" y="726"/>
      <point x="286" y="690"/>
    </contour>
    <contour>
      <point x="256" y="525" type="line"/>
      <point x="164" y="0" type="line"/>
      <point x="26" y="0" type="line"/>
      <point x="118" y="525" type="line"/>
    </contour>
  </outline>
</glyph>
<glyph name="j" format="1">
  <advance width="282"/>
  <unicode hex="006A"/>
  <outline>
    <contour>
      <point x="287" y="647" type="curve" smooth="yes"/>
      <point x="287" y="604"/>
      <point x="251" y="568"/>
      <point x="208" y="568" type="curve" smooth="yes"/>
      <point x="165" y="568"/>
      <point x="129" y="604"/>
      <point x="129" y="647" type="curve" smooth="yes"/>
      <point x="129" y="690"/>
      <point x="165" y="726"/>
      <point x="208" y="726" type="curve" smooth="yes"/>
      <point x="251" y="726"/>
      <point x="287" y="690"/>
    </contour>
    <contour>
      <point x="256" y="525" type="line"/>
      <point x="168" y="30" type="line" smooth="yes"/>
      <point x="142" y="-117"/>
      <point x="99" y="-176"/>
      <point x="-80" y="-193" type="curve"/>
      <point x="-109" y="-85" type="line"/>
      <point x="-5" y="-71"/>
      <point x="16" y="-49"/>
      <point x="31" y="33" type="curve" smooth="yes"/>
      <point x="118" y="525" type="line"/>
    </contour>
  </outline>
</glyph>
<glyph name="k" format="1">
  <advance width="547"/>
  <unicode hex="006B"/>
  <outline>
    <contour>
      <point x="550" y="525" type="line"/>
      <point x="388" y="362" type="line"/>
      <point x="473" y="0" type="line"/>
      <point x="329" y="0" type="line"/>
      <point x="274" y="247" type="line"/>
      <point x="187" y="159" type="line"/>
      <point x="159" y="0" type="line"/>
      <point x="21" y="0" type="line"/>
      <point x="137" y="660" type="line"/>
      <point x="288" y="729" type="line"/>
      <point x="238" y="450" type="line" smooth="yes"/>
      <point x="232" y="418"/>
      <point x="222" y="364"/>
      <point x="217" y="338" type="curve"/>
      <point x="234" y="359"/>
      <point x="264" y="391"/>
      <point x="286" y="415" type="curve" smooth="yes"/>
      <point x="387" y="525" type="line"/>
    </contour>
  </outline>
</glyph>
<glyph name="l" format="1">
  <advance width="282"/>
  <unicode hex="006C"/>
  <outline>
    <contour>
      <point x="292" y="729" type="line"/>
      <point x="164" y="0" type="line"/>
      <point x="26" y="0" type="line"/>
      <point x="142" y="660" type="line"/>
    </contour>
  </outline>
</glyph>
<glyph name="m" format="1">
  <advance width="877"/>
  <unicode hex="006D"/>
  <outline>
    <contour>
      <point x="828" y="370" type="curve" smooth="yes"/>
      <point x="828" y="347"/>
      <point x="826" y="323"/>
      <point x="821" y="296" type="curve" smooth="yes"/>
      <point x="769" y="0" type="line"/>
      <point x="632" y="0" type="line"/>
      <point x="682" y="284" type="line" smooth="yes"/>
      <point x="685" y="303"/>
      <point x="687" y="320"/>
      <point x="687" y="334" type="curve" smooth="yes"/>
      <point x="687" y="388"/>
      <point x="658" y="406"/>
      <point x="613" y="406" type="curve" smooth="yes"/>
      <point x="563" y="406"/>
      <point x="529" y="370"/>
      <point x="515" y="287" type="curve" smooth="yes"/>
      <point x="465" y="0" type="line"/>
      <point x="326" y="0" type="line"/>
      <point x="376" y="284" type="line" smooth="yes"/>
      <point x="379" y="303"/>
      <point x="381" y="319"/>
      <point x="381" y="333" type="curve" smooth="yes"/>
      <point x="381" y="388"/>
      <point x="352" y="406"/>
      <point x="307" y="406" type="curve" smooth="yes"/>
      <point x="257" y="406"/>
      <point x="223" y="370"/>
      <point x="209" y="287" type="curve" smooth="yes"/>
      <point x="159" y="0" type="line"/>
      <point x="21" y="0" type="line"/>
      <point x="113" y="525" type="line"/>
      <point x="251" y="525" type="line"/>
      <point x="245" y="490" type="line"/>
      <point x="270" y="513"/>
      <point x="307" y="536"/>
      <point x="358" y="536" type="curve" smooth="yes"/>
      <point x="425" y="536"/>
      <point x="468" y="514"/>
      <point x="499" y="469" type="curve"/>
      <point x="529" y="494"/>
      <point x="584" y="536"/>
      <point x="667" y="536" type="curve" smooth="yes"/>
      <point x="774" y="536"/>
      <point x="828" y="477"/>
    </contour>
  </outline>
</glyph>
<glyph name="o" format="1">
  <advance width="551"/>
  <unicode hex="006F"/>
  <outline>
    <contour>
      <point x="35" y="215" type="curve" smooth="yes"/>
      <point x="35" y="387"/>
      <point x="148" y="536"/>
      <point x="310" y="536" type="curve" smooth="yes"/>
      <point x="433" y="536"/>
      <point x="516" y="449"/>
      <point x="516" y="310" type="curve" smooth="yes"/>
      <point x="516" y="138"/>
      <point x="403" y="-11"/>
      <point x="241" y="-11" type="curve" smooth="yes"/>
      <point x="118" y="-11"/>
      <point x="35" y="76"/>
    </contour>
    <contour>
      <point x="177" y="224" type="curve" smooth="yes"/>
      <point x="177" y="159"/>
      <point x="211" y="122"/>
      <point x="256" y="122" type="curve" smooth="yes"/>
      <point x="318" y="122"/>
      <point x="374" y="188"/>
      <point x="374" y="301" type="curve" smooth="yes"/>
      <point x="374" y="366"/>
      <point x="340" y="403"/>
      <point x="295" y="403" type="curve" smooth="yes"/>
      <point x="233" y="403"/>
      <point x="177" y="337"/>
    </contour>
  </outline>
</glyph>
<glyph name="p" format="1">
  <advance width="558"/>
  <unicode hex="0070"/>
  <outline>
    <contour>
      <point x="522" y="335" type="curve" smooth="yes"/>
      <point x="522" y="156"/>
      <point x="435" y="-11"/>
      <point x="278" y="-11" type="curve" smooth="yes"/>
      <point x="225" y="-11"/>
      <point x="197" y="5"/>
      <point x="163" y="32" type="curve"/>
      <point x="136" y="-124" type="line"/>
      <point x="-14" y="-193" type="line"/>
      <point x="113" y="525" type="line"/>
      <point x="251" y="525" type="line"/>
      <point x="245" y="492" type="line"/>
      <point x="274" y="518"/>
      <point x="307" y="536"/>
      <point x="349" y="536" type="curve" smooth="yes"/>
      <point x="460" y="536"/>
      <point x="522" y="460"/>
    </contour>
    <contour>
      <point x="380" y="312" type="curve" smooth="yes"/>
      <point x="380" y="374"/>
      <point x="354" y="406"/>
      <point x="307" y="406" type="curve" smooth="yes"/>
      <point x="271" y="406"/>
      <point x="244" y="385"/>
      <point x="222" y="362" type="curve"/>
      <point x="187" y="164" type="line"/>
      <point x="213" y="134"/>
      <point x="236" y="119"/>
      <point x="275" y="119" type="curve" smooth="yes"/>
      <point x="340" y="119"/>
      <point x="380" y="207"/>
    </contour>
  </outline>
</glyph>
<glyph name="r" format="1">
  <advance width="424"/>
  <unicode hex="0072"/>
  <outline>
    <contour>
      <point x="448" y="492" type="curve"/>
      <point x="387" y="362" type="line"/>
      <point x="372" y="378"/>
      <point x="341" y="398"/>
      <point x="306" y="398" type="curve" smooth="yes"/>
      <point x="260" y="398"/>
      <point x="225" y="382"/>
      <point x="206" y="272" type="curve" smooth="yes"/>
      <point x="158" y="0" type="line"/>
      <point x="20" y="0" type="line"/>
      <point x="113" y="525" type="line"/>
      <point x="251" y="525" type="line"/>
      <point x="245" y="490" type="line"/>
      <point x="269" y="517"/>
      <point x="303" y="536"/>
      <point x="346" y="536" type="curve" smooth="yes"/>
      <point x="393" y="536"/>
      <point x="429" y="516"/>
    </contour>
  </outline>
</glyph>
<glyph name="s" format="1">
  <advance width="533"/>
  <unicode hex="0073"/>
  <outline>
    <contour>
      <point x="501" y="473" type="curve"/>
      <point x="438" y="364" type="line"/>
      <point x="397" y="391"/>
      <point x="332" y="418"/>
      <point x="273" y="418" type="curve" smooth="yes"/>
      <point x="234" y="418"/>
      <point x="218" y="404"/>
      <point x="218" y="385" type="curve" smooth="yes"/>
      <point x="218" y="368"/>
      <point x="226" y="357"/>
      <point x="315" y="320" type="curve" smooth="yes"/>
      <point x="403" y="283"/>
      <point x="461" y="243"/>
      <point x="461" y="163" type="curve" smooth="yes"/>
      <point x="461" y="41"/>
      <point x="368" y="-11"/>
      <point x="251" y="-11" type="curve" smooth="yes"/>
      <point x="146" y="-11"/>
      <point x="57" y="29"/>
      <point x="10" y="68" type="curve"/>
      <point x="75" y="168" type="line"/>
      <point x="124" y="135"/>
      <point x="186" y="107"/>
      <point x="266" y="107" type="curve" smooth="yes"/>
      <point x="302" y="107"/>
      <point x="322" y="123"/>
      <point x="322" y="148" type="curve" smooth="yes"/>
      <point x="322" y="168"/>
      <point x="308" y="181"/>
      <point x="256" y="201" type="curve" smooth="yes"/>
      <point x="137" y="248"/>
      <point x="79" y="285"/>
      <point x="79" y="366" type="curve" smooth="yes"/>
      <point x="79" y="475"/>
      <point x="153" y="536"/>
      <point x="283" y="536" type="curve" smooth="yes"/>
      <point x="378" y="536"/>
      <point x="451" y="504"/>
    </contour>
  </outline>
</glyph>
<glyph name="t" format="1">
  <advance width="438"/>
  <unicode hex="0074"/>
  <outline>
    <contour>
      <point x="420" y="525" type="line"/>
      <point x="397" y="395" type="line"/>
      <point x="275" y="395" type="line"/>
      <point x="238" y="184" type="line" smooth="yes"/>
      <point x="236" y="175"/>
      <point x="236" y="168"/>
      <point x="236" y="161" type="curve" smooth="yes"/>
      <point x="236" y="130"/>
      <point x="254" y="121"/>
      <point x="284" y="121" type="curve" smooth="yes"/>
      <point x="311" y="121"/>
      <point x="334" y="133"/>
      <point x="359" y="153" type="curve"/>
      <point x="314" y="16" type="line"/>
      <point x="288" y="-2"/>
      <point x="240" y="-11"/>
      <point x="215" y="-11" type="curve" smooth="yes"/>
      <point x="136" y="-11"/>
      <point x="90" y="38"/>
      <point x="90" y="111" type="curve" smooth="yes"/>
      <point x="90" y="122"/>
      <point x="91" y="134"/>
      <point x="93" y="147" type="curve" smooth="yes"/>
      <point x="137" y="395" type="line"/>
      <point x="49" y="395" type="line"/>
      <point x="72" y="525" type="line"/>
      <point x="160" y="525" type="line"/>
      <point x="184" y="660" type="line"/>
      <point x="334" y="729" type="line"/>
      <point x="298" y="525" type="line"/>
    </contour>
  </outline>
</glyph>
<glyph name="u" format="1">
  <advance width="580"/>
  <unicode hex="0075"/>
  <outline>
    <contour>
      <point x="49" y="152" type="curve" smooth="yes"/>
      <point x="49" y="174"/>
      <point x="51" y="203"/>
      <point x="56" y="229" type="curve" smooth="yes"/>
      <point x="108" y="525" type="line"/>
      <point x="246" y="525" type="line"/>
      <point x="196" y="241" type="line" smooth="yes"/>
      <point x="193" y="223"/>
      <point x="192" y="208"/>
      <point x="192" y="195" type="curve" smooth="yes"/>
      <point x="192" y="144"/>
      <point x="216" y="119"/>
      <point x="265" y="119" type="curve" smooth="yes"/>
      <point x="320" y="119"/>
      <point x="356" y="151"/>
      <point x="371" y="238" type="curve" smooth="yes"/>
      <point x="421" y="525" type="line"/>
      <point x="559" y="525" type="line"/>
      <point x="467" y="0" type="line"/>
      <point x="329" y="0" type="line"/>
      <point x="335" y="35" type="line"/>
      <point x="308" y="10"/>
      <point x="270" y="-11"/>
      <point x="216" y="-11" type="curve" smooth="yes"/>
      <point x="103" y="-11"/>
      <point x="49" y="47"/>
    </contour>
  </outline>
</glyph>
<glyph name="v" format="1">
  <advance width="564"/>
  <unicode hex="0076"/>
  <outline>
    <contour>
      <point x="587" y="525" type="line"/>
      <point x="307" y="0" type="line"/>
      <point x="166" y="0" type="line"/>
      <point x="72" y="525" type="line"/>
      <point x="220" y="525" type="line"/>
      <point x="253" y="282" type="line" smooth="yes"/>
      <point x="258" y="242"/>
      <point x="264" y="192"/>
      <point x="265" y="167" type="curve"/>
      <point x="276" y="193"/>
      <point x="299" y="241"/>
      <point x="319" y="282" type="curve" smooth="yes"/>
      <point x="437" y="525" type="line"/>
    </contour>
  </outline>
</glyph>
<glyph name="w" format="1">
  <advance width="738"/>
  <unicode hex="0077"/>
  <outline>
    <contour>
      <point x="759" y="525" type="line"/>
      <point x="524" y="0" type="line"/>
      <point x="401" y="0" type="line"/>
      <point x="387" y="206" type="line" smooth="yes"/>
      <point x="384" y="247"/>
      <point x="381" y="305"/>
      <point x="381" y="330" type="curve"/>
      <point x="373" y="305"/>
      <point x="348" y="247"/>
      <point x="331" y="206" type="curve" smooth="yes"/>
      <point x="245" y="0" type="line"/>
      <point x="130" y="0" type="line"/>
      <point x="71" y="525" type="line"/>
      <point x="208" y="525" type="line"/>
      <point x="220" y="331" type="line" smooth="yes"/>
      <point x="222" y="291"/>
      <point x="224" y="236"/>
      <point x="224" y="211" type="curve"/>
      <point x="233" y="237"/>
      <point x="253" y="290"/>
      <point x="271" y="331" type="curve" smooth="yes"/>
      <point x="357" y="525" type="line"/>
      <point x="471" y="525" type="line"/>
      <point x="489" y="331" type="line" smooth="yes"/>
      <point x="493" y="290"/>
      <point x="495" y="237"/>
      <point x="494" y="211" type="curve"/>
      <point x="502" y="236"/>
      <point x="524" y="291"/>
      <point x="540" y="331" type="curve" smooth="yes"/>
      <point x="620" y="525" type="line"/>
    </contour>
  </outline>
</glyph>
<glyph name="x" format="1">
  <advance width="574"/>
  <unicode hex="0078"/>
  <outline>
    <contour>
      <point x="349" y="278" type="line"/>
      <point x="487" y="0" type="line"/>
      <point x="341" y="0" type="line"/>
      <point x="290" y="105" type="line" smooth="yes"/>
      <point x="280" y="126"/>
      <point x="271" y="149"/>
      <point x="262" y="172" type="curve"/>
      <point x="247" y="150"/>
      <point x="233" y="130"/>
      <point x="214" y="107" type="curve" smooth="yes"/>
      <point x="128" y="0" type="line"/>
      <point x="-21" y="0" type="line"/>
      <point x="208" y="281" type="line"/>
      <point x="87" y="525" type="line"/>
      <point x="233" y="525" type="line"/>
      <point x="270" y="448" type="line" smooth="yes"/>
      <point x="280" y="428"/>
      <point x="287" y="411"/>
      <point x="296" y="387" type="curve"/>
      <point x="310" y="409"/>
      <point x="323" y="427"/>
      <point x="340" y="448" type="curve" smooth="yes"/>
      <point x="402" y="525" type="line"/>
      <point x="551" y="525" type="line"/>
    </contour>
  </outline>
</glyph>
<glyph name="y" format="1">
  <advance width="586"/>
  <unicode hex="0079"/>
  <outline>
    <contour>
      <point x="608" y="525" type="line"/>
      <point x="215" y="-185" type="line"/>
      <point x="77" y="-185" type="line"/>
      <point x="179" y="0" type="line"/>
      <point x="72" y="525" type="line"/>
      <point x="222" y="525" type="line"/>
      <point x="261" y="272" type="line" smooth="yes"/>
      <point x="267" y="231"/>
      <point x="273" y="182"/>
      <point x="275" y="157" type="curve"/>
      <point x="285" y="183"/>
      <point x="308" y="231"/>
      <point x="329" y="272" type="curve" smooth="yes"/>
      <point x="458" y="525" type="line"/>
    </contour>
  </outline>
</glyph>
<glyph name="z" format="1">
  <advance width="550"/>
  <unicode hex="007A"/>
  <outline>
    <contour>
      <point x="536" y="525" type="line"/>
      <point x="519" y="425" type="line"/>
      <point x="300" y="198" type="line" smooth="yes"/>
      <point x="274" y="172"/>
      <point x="236" y="139"/>
      <point x="219" y="123" type="curve"/>
      <point x="239" y="124"/>
      <point x="280" y="125"/>
      <point x="306" y="125" type="curve" smooth="yes"/>
      <point x="466" y="125" type="line"/>
      <point x="444" y="0" type="line"/>
      <point x="14" y="0" type="line"/>
      <point x="31" y="100" type="line"/>
      <point x="260" y="327" type="line" smooth="yes"/>
      <point x="286" y="353"/>
      <point x="321" y="386"/>
      <point x="338" y="402" type="curve"/>
      <point x="319" y="401"/>
      <point x="281" y="400"/>
      <point x="255" y="400" type="curve" smooth="yes"/>
      <point x="101" y="400" type="line"/>
      <point x="123" y="525" type="line"/>
    </contour>
  </outline>
</glyph>
<glyph name="braceleft" format="1">
  <advance width="456"/>
  <unicode hex="007B"/>
  <outline>
    <contour>
      <point x="481" y="705" type="curve"/>
      <point x="465" y="614" type="line"/>
      <point x="363" y="611"/>
      <point x="335" y="573"/>
      <point x="321" y="484" type="curve" smooth="yes"/>
      <point x="316" y="453" type="line" smooth="yes"/>
      <point x="298" y="343"/>
      <point x="258" y="305"/>
      <point x="193" y="297" type="curve"/>
      <point x="256" y="282"/>
      <point x="278" y="251"/>
      <point x="260" y="141" type="curve" smooth="yes"/>
      <point x="255" y="111" type="line" smooth="yes"/>
      <point x="241" y="28"/>
      <point x="262" y="-3"/>
      <point x="353" y="-19" type="curve"/>
      <point x="337" y="-110" type="line"/>
      <point x="180" y="-99"/>
      <point x="88" y="-38"/>
      <point x="113" y="101" type="curve" smooth="yes"/>
      <point x="126" y="172" type="line" smooth="yes"/>
      <point x="135" y="220"/>
      <point x="122" y="241"/>
      <point x="78" y="241" type="curve" smooth="yes"/>
      <point x="56" y="241" type="line"/>
      <point x="76" y="353" type="line"/>
      <point x="98" y="353" type="line" smooth="yes"/>
      <point x="149" y="353"/>
      <point x="161" y="372"/>
      <point x="170" y="422" type="curve" smooth="yes"/>
      <point x="183" y="494" type="line" smooth="yes"/>
      <point x="210" y="646"/>
      <point x="297" y="718"/>
    </contour>
  </outline>
</glyph>
<glyph name="bar" format="1">
  <advance width="285"/>
  <unicode hex="007C"/>
  <outline>
    <contour>
      <point x="300" y="800" type="line"/>
      <point x="126" y="-185" type="line"/>
      <point x="1" y="-185" type="line"/>
      <point x="175" y="800" type="line"/>
    </contour>
  </outline>
</glyph>
<glyph name="braceright" format="1">
  <advance width="456"/>
  <unicode hex="007D"/>
  <outline>
    <contour>
      <point x="411" y="354" type="line"/>
      <point x="391" y="242" type="line"/>
      <point x="369" y="242" type="line" smooth="yes"/>
      <point x="318" y="242"/>
      <point x="306" y="223"/>
      <point x="297" y="173" type="curve" smooth="yes"/>
      <point x="284" y="101" type="line" smooth="yes"/>
      <point x="257" y="-51"/>
      <point x="170" y="-123"/>
      <point x="-14" y="-110" type="curve"/>
      <point x="2" y="-19" type="line"/>
      <point x="104" y="-16"/>
      <point x="131" y="21"/>
      <point x="146" y="111" type="curve" smooth="yes"/>
      <point x="151" y="142" type="line" smooth="yes"/>
      <point x="169" y="253"/>
      <point x="209" y="290"/>
      <point x="274" y="298" type="curve"/>
      <point x="211" y="313"/>
      <point x="188" y="343"/>
      <point x="207" y="454" type="curve" smooth="yes"/>
      <point x="212" y="484" type="line" smooth="yes"/>
      <point x="226" y="568"/>
      <point x="205" y="598"/>
      <point x="114" y="614" type="curve"/>
      <point x="130" y="705" type="line"/>
      <point x="287" y="694"/>
      <point x="379" y="633"/>
      <point x="354" y="494" type="curve" smooth="yes"/>
      <point x="341" y="423" type="line" smooth="yes"/>
      <point x="332" y="375"/>
      <point x="345" y="354"/>
      <point x="389" y="354" type="curve" smooth="yes"/>
    </contour>
  </outline>
</glyph>
<glyph name="asciitilde" format="1">
  <advance width="562"/>
  <unicode hex="007E"/>
  <outline>
    <contour>
      <point x="548" y="424" type="line"/>
      <point x="496" y="332"/>
      <point x="442" y="273"/>
      <point x="374" y="273" type="curve" smooth="yes"/>
      <point x="331" y="273"/>
      <point x="303" y="291"/>
      <point x="279" y="309" type="curve" smooth="yes"/>
      <point x="254" y="328"/>
      <point x="234" y="347"/>
      <point x="208" y="347" type="curve" smooth="yes"/>
      <point x="180" y="347"/>
      <point x="169" y="336"/>
      <point x="126" y="276" type="curve"/>
      <point x="52" y="318" type="line"/>
      <point x="104" y="410"/>
      <point x="158" y="469"/>
      <point x="226" y="469" type="curve" smooth="yes"/>
      <point x="263" y="469"/>
      <point x="290" y="455"/>
      <point x="313" y="439" type="curve" smooth="yes"/>
      <point x="343" y="419"/>
      <point x="366" y="395"/>
      <point x="392" y="395" type="curve" smooth="yes"/>
      <point x="420" y="395"/>
      <point x="431" y="406"/>
      <point x="474" y="466" type="curve"/>
    </contour>
  </outline>
</glyph>
<glyph name="exclamdown" format="1">
  <advance width="340"/>
  <unicode hex="00A1"/>
  <outline>
    <contour>
      <point x="318" y="626" type="curve" smooth="yes"/>
      <point x="318" y="580"/>
      <point x="279" y="541"/>
      <point x="233" y="541" type="curve" smooth="yes"/>
      <point x="187" y="541"/>
      <point x="148" y="580"/>
      <point x="148" y="626" type="curve" smooth="yes"/>
      <point x="148" y="672"/>
      <point x="187" y="711"/>
      <point x="233" y="711" type="curve" smooth="yes"/>
      <point x="279" y="711"/>
      <point x="318" y="672"/>
    </contour>
    <contour>
      <point x="255" y="480" type="line"/>
      <point x="245" y="288" type="line"/>
      <point x="194" y="0" type="line"/>
      <point x="54" y="0" type="line"/>
      <point x="105" y="288" type="line"/>
      <point x="161" y="480" type="line"/>
    </contour>
  </outline>
</glyph>
<glyph name="cent" format="1">
  <advance width="533"/>
  <unicode hex="00A2"/>
  <outline>
    <contour>
      <point x="541" y="499" type="curve"/>
      <point x="435" y="420" type="line"/>
      <point x="415" y="468"/>
      <point x="369" y="503"/>
      <point x="322" y="503" type="curve" smooth="yes"/>
      <point x="246" y="503"/>
      <point x="193" y="430"/>
      <point x="193" y="327" type="curve" smooth="yes"/>
      <point x="193" y="256"/>
      <point x="228" y="210"/>
      <point x="288" y="210" type="curve" smooth="yes"/>
      <point x="326" y="210"/>
      <point x="370" y="230"/>
      <point x="412" y="272" type="curve"/>
      <point x="487" y="188" type="line"/>
      <point x="433" y="129"/>
      <point x="371" y="96"/>
      <point x="312" y="85" type="curve"/>
      <point x="295" y="-11" type="line"/>
      <point x="160" y="-11" type="line"/>
      <point x="179" y="96" type="line"/>
      <point x="100" y="130"/>
      <point x="52" y="207"/>
      <point x="52" y="314" type="curve" smooth="yes"/>
      <point x="52" y="485"/>
      <point x="156" y="598"/>
      <point x="272" y="624" type="curve"/>
      <point x="286" y="700" type="line"/>
      <point x="421" y="700" type="line"/>
      <point x="406" y="620" type="line"/>
      <point x="467" y="601"/>
      <point x="517" y="560"/>
    </contour>
  </outline>
</glyph>
<glyph name="sterling" format="1">
  <advance width="666"/>
  <unicode hex="00A3"/>
  <outline>
    <contour>
      <point x="682" y="598" type="curve"/>
      <point x="584" y="501" type="line"/>
      <point x="544" y="543"/>
      <point x="473" y="576"/>
      <point x="401" y="576" type="curve" smooth="yes"/>
      <point x="332" y="576"/>
      <point x="308" y="546"/>
      <point x="308" y="503" type="curve" smooth="yes"/>
      <point x="308" y="485"/>
      <point x="310" y="475"/>
      <point x="316" y="455" type="curve" smooth="yes"/>
      <point x="324" y="432"/>
      <point x="333" y="409"/>
      <point x="338" y="383" type="curve"/>
      <point x="487" y="383" type="line"/>
      <point x="468" y="270" type="line"/>
      <point x="331" y="270" type="line"/>
      <point x="318" y="226"/>
      <point x="291" y="176"/>
      <point x="236" y="120" type="curve"/>
      <point x="580" y="120" type="line"/>
      <point x="559" y="0" type="line"/>
      <point x="41" y="0" type="line"/>
      <point x="62" y="114" type="line"/>
      <point x="137" y="177"/>
      <point x="172" y="225"/>
      <point x="185" y="270" type="curve"/>
      <point x="89" y="270" type="line"/>
      <point x="108" y="383" type="line"/>
      <point x="188" y="383" type="line"/>
      <point x="182" y="408"/>
      <point x="174" y="430"/>
      <point x="167" y="453" type="curve" smooth="yes"/>
      <point x="159" y="481"/>
      <point x="156" y="500"/>
      <point x="156" y="524" type="curve" smooth="yes"/>
      <point x="156" y="634"/>
      <point x="242" y="711"/>
      <point x="409" y="711" type="curve" smooth="yes"/>
      <point x="526" y="711"/>
      <point x="623" y="667"/>
    </contour>
  </outline>
</glyph>
<glyph name="yen" format="1">
  <advance width="680"/>
  <unicode hex="00A5"/>
  <outline>
    <contour>
      <point x="735" y="700" type="line"/>
      <point x="408" y="272" type="line"/>
      <point x="400" y="223" type="line"/>
      <point x="561" y="223" type="line"/>
      <point x="540" y="105" type="line"/>
      <point x="379" y="105" type="line"/>
      <point x="360" y="0" type="line"/>
      <point x="226" y="0" type="line"/>
      <point x="245" y="105" type="line"/>
      <point x="84" y="105" type="line"/>
      <point x="105" y="223" type="line"/>
      <point x="266" y="223" type="line"/>
      <point x="274" y="269" type="line"/>
      <point x="99" y="700" type="line"/>
      <point x="254" y="700" type="line"/>
      <point x="312" y="534" type="line" smooth="yes"/>
      <point x="327" y="492"/>
      <point x="352" y="424"/>
      <point x="357" y="397" type="curve"/>
      <point x="373" y="424"/>
      <point x="417" y="491"/>
      <point x="448" y="534" type="curve" smooth="yes"/>
      <point x="570" y="700" type="line"/>
    </contour>
  </outline>
</glyph>
<glyph name="section" format="1">
  <advance width="696"/>
  <unicode hex="00A7"/>
  <outline>
    <contour>
      <point x="204" y="475" type="curve"/>
      <point x="196" y="492"/>
      <point x="192" y="510"/>
      <point x="192" y="531" type="curve" smooth="yes"/>
      <point x="192" y="634"/>
      <point x="262" y="711"/>
      <point x="405" y="711" type="curve" smooth="yes"/>
      <point x="506" y="711"/>
      <point x="576" y="682"/>
      <point x="631" y="627" type="curve"/>
      <point x="545" y="537" type="line"/>
      <point x="505" y="571"/>
      <point x="457" y="596"/>
      <point x="388" y="596" type="curve" smooth="yes"/>
      <point x="342" y="596"/>
      <point x="324" y="576"/>
      <point x="324" y="552" type="curve" smooth="yes"/>
      <point x="324" y="527"/>
      <point x="340" y="513"/>
      <point x="473" y="456" type="curve" smooth="yes"/>
      <point x="596" y="403"/>
      <point x="643" y="355"/>
      <point x="643" y="271" type="curve" smooth="yes"/>
      <point x="643" y="173"/>
      <point x="586" y="120"/>
      <point x="499" y="81" type="curve"/>
      <point x="507" y="64"/>
      <point x="511" y="46"/>
      <point x="511" y="25" type="curve" smooth="yes"/>
      <point x="511" y="-78"/>
      <point x="441" y="-155"/>
      <point x="298" y="-155" type="curve" smooth="yes"/>
      <point x="197" y="-155"/>
      <point x="127" y="-126"/>
      <point x="72" y="-71" type="curve"/>
      <point x="158" y="19" type="line"/>
      <point x="198" y="-15"/>
      <point x="246" y="-40"/>
      <point x="315" y="-40" type="curve" smooth="yes"/>
      <point x="361" y="-40"/>
      <point x="379" y="-20"/>
      <point x="379" y="4" type="curve" smooth="yes"/>
      <point x="379" y="29"/>
      <point x="363" y="43"/>
      <point x="230" y="100" type="curve" smooth="yes"/>
      <point x="107" y="153"/>
      <point x="60" y="201"/>
      <point x="60" y="285" type="curve" smooth="yes"/>
      <point x="60" y="383"/>
      <point x="117" y="436"/>
    </contour>
    <contour>
      <point x="421" y="157" type="curve"/>
      <point x="477" y="176"/>
      <point x="508" y="203"/>
      <point x="508" y="247" type="curve" smooth="yes"/>
      <point x="508" y="285"/>
      <point x="485" y="304"/>
      <point x="345" y="367" type="curve" smooth="yes"/>
      <point x="321" y="378"/>
      <point x="301" y="388"/>
      <point x="282" y="399" type="curve"/>
      <point x="226" y="380"/>
      <point x="195" y="353"/>
      <point x="195" y="309" type="curve" smooth="yes"/>
      <point x="195" y="271"/>
      <point x="218" y="252"/>
      <point x="358" y="189" type="curve" smooth="yes"/>
      <point x="382" y="178"/>
      <point x="402" y="168"/>
    </contour>
  </outline>
</glyph>
<glyph name="dieresis" format="1">
  <advance width="500"/>
  <unicode hex="00A8"/>
  <outline>
    <contour>
      <point x="507" y="672" type="curve" smooth="yes"/>
      <point x="507" y="631"/>
      <point x="471" y="595"/>
      <point x="430" y="595" type="curve" smooth="yes"/>
      <point x="387" y="595"/>
      <point x="351" y="631"/>
      <point x="351" y="672" type="curve" smooth="yes"/>
      <point x="351" y="715"/>
      <point x="387" y="750"/>
      <point x="430" y="750" type="curve" smooth="yes"/>
      <point x="471" y="750"/>
      <point x="507" y="715"/>
    </contour>
    <contour>
      <point x="291" y="672" type="curve" smooth="yes"/>
      <point x="291" y="631"/>
      <point x="255" y="595"/>
      <point x="213" y="595" type="curve" smooth="yes"/>
      <point x="171" y="595"/>
      <point x="135" y="631"/>
      <point x="135" y="672" type="curve" smooth="yes"/>
      <point x="135" y="715"/>
      <point x="171" y="750"/>
      <point x="213" y="750" type="curve" smooth="yes"/>
      <point x="255" y="750"/>
      <point x="291" y="715"/>
    </contour>
  </outline>
</glyph>
<glyph name="copyright" format="1">
  <advance width="836"/>
  <unicode hex="00A9"/>
  <outline>
    <contour>
      <point x="789" y="350" type="curve" smooth="yes"/>
      <point x="789" y="145"/>
      <point x="633" y="-11"/>
      <point x="428" y="-11" type="curve" smooth="yes"/>
      <point x="223" y="-11"/>
      <point x="67" y="145"/>
      <point x="67" y="350" type="curve" smooth="yes"/>
      <point x="67" y="555"/>
      <point x="223" y="711"/>
      <point x="428" y="711" type="curve" smooth="yes"/>
      <point x="633" y="711"/>
      <point x="789" y="555"/>
    </contour>
    <contour>
      <point x="725" y="350" type="curve" smooth="yes"/>
      <point x="725" y="519"/>
      <point x="597" y="647"/>
      <point x="428" y="647" type="curve" smooth="yes"/>
      <point x="259" y="647"/>
      <point x="131" y="519"/>
      <point x="131" y="350" type="curve" smooth="yes"/>
      <point x="131" y="181"/>
      <point x="259" y="53"/>
      <point x="428" y="53" type="curve" smooth="yes"/>
      <point x="597" y="53"/>
      <point x="725" y="181"/>
    </contour>
    <contour>
      <point x="578" y="469" type="curve"/>
      <point x="499" y="425" type="line"/>
      <point x="483" y="453"/>
      <point x="464" y="469"/>
      <point x="433" y="469" type="curve" smooth="yes"/>
      <point x="382" y="469"/>
      <point x="354" y="428"/>
      <point x="354" y="352" type="curve" smooth="yes"/>
      <point x="354" y="278"/>
      <point x="384" y="236"/>
      <point x="434" y="236" type="curve" smooth="yes"/>
      <point x="463" y="236"/>
      <point x="484" y="254"/>
      <point x="505" y="287" type="curve"/>
      <point x="575" y="239" type="line"/>
      <point x="542" y="182"/>
      <point x="502" y="149"/>
      <point x="432" y="149" type="curve" smooth="yes"/>
      <point x="329" y="149"/>
      <point x="260" y="228"/>
      <point x="260" y="352" type="curve" smooth="yes"/>
      <point x="260" y="471"/>
      <point x="332" y="556"/>
      <point x="434" y="556" type="curve" smooth="yes"/>
      <point x="508" y="556"/>
      <point x="553" y="520"/>
    </contour>
  </outline>
</glyph>
<glyph name="ordfeminine" format="1">
  <advance width="473"/>
  <unicode hex="00AA"/>
  <outline>
    <contour>
      <point x="467" y="593" type="curve" smooth="yes"/>
      <point x="467" y="583"/>
      <point x="466" y="573"/>
      <point x="464" y="562" type="curve" smooth="yes"/>
      <point x="413" y="276" type="line"/>
      <point x="304" y="276" type="line"/>
      <point x="310" y="307" type="line"/>
      <point x="286" y="286"/>
      <point x="251" y="268"/>
      <point x="213" y="268" type="curve" smooth="yes"/>
      <point x="127" y="268"/>
      <point x="74" y="322"/>
      <point x="74" y="398" type="curve" smooth="yes"/>
      <point x="74" y="491"/>
      <point x="141" y="560"/>
      <point x="254" y="560" type="curve" smooth="yes"/>
      <point x="293" y="560"/>
      <point x="333" y="551"/>
      <point x="351" y="543" type="curve"/>
      <point x="355" y="564" type="line" smooth="yes"/>
      <point x="356" y="569"/>
      <point x="356" y="573"/>
      <point x="356" y="577" type="curve" smooth="yes"/>
      <point x="356" y="604"/>
      <point x="332" y="620"/>
      <point x="276" y="620" type="curve" smooth="yes"/>
      <point x="242" y="620"/>
      <point x="210" y="610"/>
      <point x="183" y="599" type="curve"/>
      <point x="155" y="679" type="line"/>
      <point x="183" y="691"/>
      <point x="232" y="711"/>
      <point x="292" y="711" type="curve" smooth="yes"/>
      <point x="399" y="711"/>
      <point x="467" y="674"/>
    </contour>
    <contour>
      <point x="336" y="456" type="line"/>
      <point x="318" y="465"/>
      <point x="293" y="473"/>
      <point x="254" y="473" type="curve" smooth="yes"/>
      <point x="209" y="473"/>
      <point x="186" y="448"/>
      <point x="186" y="413" type="curve" smooth="yes"/>
      <point x="186" y="382"/>
      <point x="205" y="360"/>
      <point x="246" y="360" type="curve" smooth="yes"/>
      <point x="283" y="360"/>
      <point x="310" y="381"/>
      <point x="326" y="401" type="curve"/>
    </contour>
  </outline>
</glyph>
<glyph name="guillemotleft" format="1">
  <advance width="628"/>
  <unicode hex="00AB"/>
  <outline>
    <contour>
      <point x="634" y="525" type="line"/>
      <point x="430" y="263" type="line"/>
      <point x="542" y="0" type="line"/>
      <point x="399" y="0" type="line"/>
      <point x="282" y="262" type="line"/>
      <point x="491" y="525" type="line"/>
    </contour>
    <contour>
      <point x="382" y="525" type="line"/>
      <point x="178" y="263" type="line"/>
      <point x="290" y="0" type="line"/>
      <point x="147" y="0" type="line"/>
      <point x="30" y="262" type="line"/>
      <point x="239" y="525" type="line"/>
    </contour>
  </outline>
</glyph>
<glyph name="degree" format="1">
  <advance width="486"/>
  <unicode hex="00B0"/>
  <outline>
    <contour>
      <point x="482" y="514" type="curve" smooth="yes"/>
      <point x="482" y="401"/>
      <point x="396" y="315"/>
      <point x="284" y="315" type="curve" smooth="yes"/>
      <point x="173" y="315"/>
      <point x="86" y="401"/>
      <point x="86" y="514" type="curve" smooth="yes"/>
      <point x="86" y="624"/>
      <point x="173" y="711"/>
      <point x="284" y="711" type="curve" smooth="yes"/>
      <point x="396" y="711"/>
      <point x="482" y="624"/>
    </contour>
    <contour>
      <point x="377" y="514" type="curve" smooth="yes"/>
      <point x="377" y="565"/>
      <point x="337" y="607"/>
      <point x="284" y="607" type="curve" smooth="yes"/>
      <point x="232" y="607"/>
      <point x="191" y="565"/>
      <point x="191" y="514" type="curve" smooth="yes"/>
      <point x="191" y="460"/>
      <point x="232" y="419"/>
      <point x="284" y="419" type="curve" smooth="yes"/>
      <point x="337" y="419"/>
      <point x="377" y="460"/>
    </contour>
  </outline>
</glyph>
<glyph name="acute" format="1">
  <advance width="500"/>
  <unicode hex="00B4"/>
  <outline>
    <contour>
      <point x="487" y="755" type="line"/>
      <point x="314" y="595" type="line"/>
      <point x="197" y="595" type="line"/>
      <point x="312" y="755" type="line"/>
    </contour>
  </outline>
</glyph>
<glyph name="paragraph" format="1">
  <advance width="720"/>
  <unicode hex="00B6"/>
  <outline>
    <contour>
      <point x="708" y="700" type="line"/>
      <point x="552" y="-185" type="line"/>
      <point x="438" y="-185" type="line"/>
      <point x="575" y="594" type="line"/>
      <point x="511" y="594" type="line"/>
      <point x="374" y="-185" type="line"/>
      <point x="260" y="-185" type="line"/>
      <point x="338" y="261" type="line"/>
      <point x="306" y="261" type="line" smooth="yes"/>
      <point x="171" y="261"/>
      <point x="82" y="336"/>
      <point x="82" y="455" type="curve" smooth="yes"/>
      <point x="82" y="595"/>
      <point x="177" y="700"/>
      <point x="338" y="700" type="curve" smooth="yes"/>
    </contour>
  </outline>
</glyph>
<glyph name="periodcentered" format="1">
  <advance width="272"/>
  <unicode hex="00B7"/>
  <outline>
    <contour>
      <point x="247" y="367" type="curve" smooth="yes"/>
      <point x="247" y="316"/>
      <point x="204" y="273"/>
      <point x="153" y="273" type="curve" smooth="yes"/>
      <point x="102" y="273"/>
      <point x="59" y="316"/>
      <point x="59" y="367" type="curve" smooth="yes"/>
      <point x="59" y="418"/>
      <point x="102" y="461"/>
      <point x="153" y="461" type="curve" smooth="yes"/>
      <point x="204" y="461"/>
      <point x="247" y="418"/>
    </contour>
  </outline>
</glyph>
<glyph name="cedilla" format="1">
  <advance width="500"/>
  <unicode hex="00B8"/>
  <outline>
    <contour>
      <point x="313" y="-98" type="curve" smooth="yes"/>
      <point x="313" y="-157"/>
      <point x="267" y="-193"/>
      <point x="196" y="-193" type="curve" smooth="yes"/>
      <point x="134" y="-193"/>
      <point x="81" y="-168"/>
      <point x="53" y="-146" type="curve"/>
      <point x="81" y="-110" type="line"/>
      <point x="107" y="-128"/>
      <point x="142" y="-143"/>
      <point x="176" y="-143" type="curve" smooth="yes"/>
      <point x="205" y="-143"/>
      <point x="226" y="-131"/>
      <point x="226" y="-109" type="curve" smooth="yes"/>
      <point x="226" y="-90"/>
      <point x="215" y="-83"/>
      <point x="194" y="-83" type="curve" smooth="yes"/>
      <point x="186" y="-83"/>
      <point x="176" y="-86"/>
      <point x="168" y="-90" type="curve"/>
      <point x="134" y="-76" type="line"/>
      <point x="181" y="37" type="line"/>
      <point x="237" y="37" type="line"/>
      <point x="206" y="-42" type="line"/>
      <point x="217" y="-39"/>
      <point x="228" y="-35"/>
      <point x="244" y="-35" type="curve" smooth="yes"/>
      <point x="282" y="-35"/>
      <point x="313" y="-57"/>
    </contour>
  </outline>
</glyph>
<glyph name="ordmasculine" format="1">
  <advance width="487"/>
  <unicode hex="00BA"/>
  <outline>
    <contour>
      <point x="478" y="529" type="curve" smooth="yes"/>
      <point x="478" y="399"/>
      <point x="390" y="268"/>
      <point x="259" y="268" type="curve" smooth="yes"/>
      <point x="165" y="268"/>
      <point x="89" y="329"/>
      <point x="89" y="450" type="curve" smooth="yes"/>
      <point x="89" y="580"/>
      <point x="177" y="711"/>
      <point x="308" y="711" type="curve" smooth="yes"/>
      <point x="402" y="711"/>
      <point x="478" y="650"/>
    </contour>
    <contour>
      <point x="365" y="522" type="curve" smooth="yes"/>
      <point x="365" y="577"/>
      <point x="339" y="603"/>
      <point x="299" y="603" type="curve" smooth="yes"/>
      <point x="232" y="603"/>
      <point x="202" y="523"/>
      <point x="202" y="457" type="curve" smooth="yes"/>
      <point x="202" y="402"/>
      <point x="228" y="376"/>
      <point x="268" y="376" type="curve" smooth="yes"/>
      <point x="335" y="376"/>
      <point x="365" y="456"/>
    </contour>
  </outline>
</glyph>
<glyph name="guillemotright" format="1">
  <advance width="628"/>
  <unicode hex="00BB"/>
  <outline>
    <contour>
      <point x="598" y="263" type="line"/>
      <point x="389" y="0" type="line"/>
      <point x="246" y="0" type="line"/>
      <point x="450" y="262" type="line"/>
      <point x="338" y="525" type="line"/>
      <point x="481" y="525" type="line"/>
    </contour>
    <contour>
      <point x="346" y="263" type="line"/>
      <point x="137" y="0" type="line"/>
      <point x="-6" y="0" type="line"/>
      <point x="198" y="262" type="line"/>
      <point x="86" y="525" type="line"/>
      <point x="229" y="525" type="line"/>
    </contour>
  </outline>
</glyph>
<glyph name="questiondown" format="1">
  <advance width="580"/>
  <unicode hex="00BF"/>
  <outline>
    <contour>
      <point x="291" y="626" type="curve" smooth="yes"/>
      <point x="291" y="672"/>
      <point x="330" y="711"/>
      <point x="376" y="711" type="curve" smooth="yes"/>
      <point x="422" y="711"/>
      <point x="461" y="672"/>
      <point x="461" y="626" type="curve" smooth="yes"/>
      <point x="461" y="580"/>
      <point x="422" y="541"/>
      <point x="376" y="541" type="curve" smooth="yes"/>
      <point x="330" y="541"/>
      <point x="291" y="580"/>
    </contour>
    <contour>
      <point x="22" y="168" type="curve" smooth="yes"/>
      <point x="22" y="275"/>
      <point x="67" y="332"/>
      <point x="183" y="380" type="curve" smooth="yes"/>
      <point x="245" y="406"/>
      <point x="274" y="430"/>
      <point x="282" y="480" type="curve"/>
      <point x="419" y="480" type="line"/>
      <point x="407" y="363"/>
      <point x="360" y="326"/>
      <point x="265" y="289" type="curve" smooth="yes"/>
      <point x="198" y="263"/>
      <point x="166" y="240"/>
      <point x="166" y="196" type="curve" smooth="yes"/>
      <point x="166" y="155"/>
      <point x="203" y="126"/>
      <point x="266" y="126" type="curve" smooth="yes"/>
      <point x="325" y="126"/>
      <point x="397" y="148"/>
      <point x="459" y="199" type="curve"/>
      <point x="530" y="89" type="line"/>
      <point x="449" y="24"/>
      <point x="353" y="-11"/>
      <point x="250" y="-11" type="curve" smooth="yes"/>
      <point x="94" y="-11"/>
      <point x="22" y="73"/>
    </contour>
  </outline>
</glyph>
<glyph name="Aring" format="1">
  <advance width="746"/>
  <unicode hex="00C5"/>
  <outline>
    <contour>
      <point x="661" y="0" type="line"/>
      <point x="512" y="0" type="line"/>
      <point x="485" y="156" type="line"/>
      <point x="232" y="156" type="line"/>
      <point x="150" y="0" type="line"/>
      <point x="-5" y="0" type="line"/>
      <point x="-5" y="0"/>
      <point x="358" y="653"/>
      <point x="358" y="652" type="curve"/>
      <point x="335" y="676"/>
      <point x="322" y="708"/>
      <point x="322" y="745" type="curve" smooth="yes"/>
      <point x="322" y="822"/>
      <point x="380" y="880"/>
      <point x="457" y="880" type="curve" smooth="yes"/>
      <point x="534" y="880"/>
      <point x="592" y="822"/>
      <point x="592" y="745" type="curve" smooth="yes"/>
      <point x="592" y="697"/>
      <point x="569" y="657"/>
      <point x="533" y="634" type="curve"/>
    </contour>
    <contour>
      <point x="516" y="745" type="curve" smooth="yes"/>
      <point x="516" y="779"/>
      <point x="490" y="805"/>
      <point x="457" y="805" type="curve" smooth="yes"/>
      <point x="424" y="805"/>
      <point x="398" y="779"/>
      <point x="398" y="745" type="curve" smooth="yes"/>
      <point x="398" y="711"/>
      <point x="424" y="685"/>
      <point x="457" y="685" type="curve" smooth="yes"/>
      <point x="490" y="685"/>
      <point x="516" y="711"/>
    </contour>
    <contour>
      <point x="461" y="289" type="line"/>
      <point x="439" y="416" type="line" smooth="yes"/>
      <point x="432" y="457"/>
      <point x="426" y="499"/>
      <point x="423" y="525" type="curve"/>
      <point x="412" y="499"/>
      <point x="391" y="458"/>
      <point x="369" y="416" type="curve" smooth="yes"/>
      <point x="302" y="289" type="line"/>
    </contour>
  </outline>
</glyph>
<glyph name="AE" format="1">
  <advance width="1034"/>
  <unicode hex="00C6"/>
  <outline>
    <contour>
      <point x="1037" y="700" type="line"/>
      <point x="1014" y="566" type="line"/>
      <point x="692" y="566" type="line"/>
      <point x="670" y="440" type="line"/>
      <point x="847" y="440" type="line"/>
      <point x="823" y="308" type="line"/>
      <point x="646" y="308" type="line"/>
      <point x="616" y="134" type="line"/>
      <point x="953" y="134" type="line"/>
      <point x="929" y="0" type="line"/>
      <point x="458" y="0" type="line"/>
      <point x="480" y="125" type="line"/>
      <point x="237" y="125" type="line"/>
      <point x="137" y="0" type="line"/>
      <point x="-32" y="0" type="line"/>
      <point x="550" y="700" type="line"/>
    </contour>
    <contour>
      <point x="552" y="522" type="curve"/>
      <point x="530" y="490"/>
      <point x="481" y="429"/>
      <point x="448" y="388" type="curve" smooth="yes"/>
      <point x="336" y="248" type="line"/>
      <point x="502" y="248" type="line"/>
      <point x="524" y="376" type="line" smooth="yes"/>
      <point x="531" y="417"/>
      <point x="547" y="494"/>
    </contour>
  </outline>
</glyph>
<glyph name="Ccedilla" format="1">
  <advance width="666"/>
  <unicode hex="00C7"/>
  <outline>
    <contour>
      <point x="273" y="-6" type="line"/>
      <point x="159" y="13"/>
      <point x="59" y="98"/>
      <point x="59" y="277" type="curve" smooth="yes"/>
      <point x="59" y="540"/>
      <point x="220" y="711"/>
      <point x="410" y="711" type="curve" smooth="yes"/>
      <point x="549" y="711"/>
      <point x="618" y="654"/>
      <point x="666" y="551" type="curve"/>
      <point x="530" y="481" type="line"/>
      <point x="501" y="535"/>
      <point x="467" y="573"/>
      <point x="395" y="573" type="curve" smooth="yes"/>
      <point x="282" y="573"/>
      <point x="205" y="441"/>
      <point x="205" y="297" type="curve" smooth="yes"/>
      <point x="205" y="183"/>
      <point x="263" y="128"/>
      <point x="343" y="128" type="curve" smooth="yes"/>
      <point x="398" y="128"/>
      <point x="440" y="159"/>
      <point x="482" y="216" type="curve"/>
      <point x="594" y="135" type="line"/>
      <point x="520" y="35"/>
      <point x="439" y="-11"/>
      <point x="328" y="-11" type="curve"/>
      <point x="316" y="-42" type="line"/>
      <point x="327" y="-39"/>
      <point x="338" y="-35"/>
      <point x="354" y="-35" type="curve" smooth="yes"/>
      <point x="392" y="-35"/>
      <point x="423" y="-57"/>
      <point x="423" y="-98" type="curve" smooth="yes"/>
      <point x="423" y="-157"/>
      <point x="377" y="-193"/>
      <point x="306" y="-193" type="curve" smooth="yes"/>
      <point x="244" y="-193"/>
      <point x="191" y="-168"/>
      <point x="163" y="-146" type="curve"/>
      <point x="191" y="-110" type="line"/>
      <point x="217" y="-128"/>
      <point x="252" y="-143"/>
      <point x="286" y="-143" type="curve" smooth="yes"/>
      <point x="315" y="-143"/>
      <point x="336" y="-131"/>
      <point x="336" y="-109" type="curve" smooth="yes"/>
      <point x="336" y="-90"/>
      <point x="325" y="-83"/>
      <point x="304" y="-83" type="curve" smooth="yes"/>
      <point x="296" y="-83"/>
      <point x="286" y="-86"/>
      <point x="278" y="-90" type="curve"/>
      <point x="244" y="-76" type="line"/>
    </contour>
  </outline>
</glyph>
<glyph name="Eth" format="1">
  <advance width="718"/>
  <unicode hex="00D0"/>
  <outline>
    <contour>
      <point x="683" y="324" type="curve" smooth="yes"/>
      <point x="639" y="74"/>
      <point x="447" y="0"/>
      <point x="298" y="0" type="curve" smooth="yes"/>
      <point x="58" y="0" type="line"/>
      <point x="113" y="308" type="line"/>
      <point x="48" y="308" type="line"/>
      <point x="68" y="423" type="line"/>
      <point x="133" y="423" type="line"/>
      <point x="182" y="700" type="line"/>
      <point x="342" y="700" type="line" smooth="yes"/>
      <point x="609" y="700"/>
      <point x="728" y="579"/>
    </contour>
    <contour>
      <point x="539" y="333" type="curve" smooth="yes"/>
      <point x="564" y="476"/>
      <point x="517" y="564"/>
      <point x="339" y="564" type="curve" smooth="yes"/>
      <point x="294" y="564" type="line"/>
      <point x="269" y="423" type="line"/>
      <point x="359" y="423" type="line"/>
      <point x="339" y="308" type="line"/>
      <point x="248" y="308" type="line"/>
      <point x="218" y="136" type="line"/>
      <point x="309" y="136" type="line" smooth="yes"/>
      <point x="425" y="136"/>
      <point x="517" y="205"/>
    </contour>
  </outline>
</glyph>
<glyph name="Oslash" format="1">
  <advance width="715"/>
  <unicode hex="00D8"/>
  <outline>
    <contour>
      <point x="123" y="76" type="line"/>
      <point x="82" y="126"/>
      <point x="59" y="194"/>
      <point x="59" y="277" type="curve" smooth="yes"/>
      <point x="59" y="513"/>
      <point x="202" y="711"/>
      <point x="411" y="711" type="curve" smooth="yes"/>
      <point x="456" y="711"/>
      <point x="496" y="704"/>
      <point x="531" y="690" type="curve"/>
      <point x="571" y="750" type="line"/>
      <point x="703" y="750" type="line"/>
      <point x="621" y="627" type="line"/>
      <point x="664" y="578"/>
      <point x="688" y="508"/>
      <point x="688" y="423" type="curve" smooth="yes"/>
      <point x="688" y="187"/>
      <point x="545" y="-11"/>
      <point x="336" y="-11" type="curve" smooth="yes"/>
      <point x="290" y="-11"/>
      <point x="248" y="-3"/>
      <point x="212" y="12" type="curve"/>
      <point x="171" y="-50" type="line"/>
      <point x="39" y="-50" type="line"/>
    </contour>
    <contour>
      <point x="216" y="216" type="curve"/>
      <point x="451" y="569" type="line"/>
      <point x="435" y="575"/>
      <point x="418" y="578"/>
      <point x="401" y="578" type="curve" smooth="yes"/>
      <point x="293" y="578"/>
      <point x="203" y="462"/>
      <point x="203" y="297" type="curve" smooth="yes"/>
      <point x="203" y="266"/>
      <point x="208" y="239"/>
    </contour>
    <contour>
      <point x="529" y="489" type="curve"/>
      <point x="292" y="132" type="line"/>
      <point x="309" y="125"/>
      <point x="327" y="122"/>
      <point x="346" y="122" type="curve" smooth="yes"/>
      <point x="454" y="122"/>
      <point x="544" y="238"/>
      <point x="544" y="403" type="curve" smooth="yes"/>
      <point x="544" y="436"/>
      <point x="539" y="465"/>
    </contour>
  </outline>
</glyph>
<glyph name="Thorn" format="1">
  <advance width="676"/>
  <unicode hex="00DE"/>
  <outline>
    <contour>
      <point x="657" y="402" type="curve" smooth="yes"/>
      <point x="657" y="238"/>
      <point x="555" y="140"/>
      <point x="371" y="140" type="curve" smooth="yes"/>
      <point x="209" y="140" type="line"/>
      <point x="184" y="0" type="line"/>
      <point x="44" y="0" type="line"/>
      <point x="168" y="700" type="line"/>
      <point x="308" y="700" type="line"/>
      <point x="289" y="592" type="line"/>
      <point x="418" y="592" type="line" smooth="yes"/>
      <point x="573" y="592"/>
      <point x="657" y="521"/>
    </contour>
    <contour>
      <point x="510" y="380" type="curve" smooth="yes"/>
      <point x="510" y="424"/>
      <point x="485" y="456"/>
      <point x="410" y="456" type="curve" smooth="yes"/>
      <point x="265" y="456" type="line"/>
      <point x="233" y="276" type="line"/>
      <point x="396" y="276" type="line" smooth="yes"/>
      <point x="467" y="276"/>
      <point x="510" y="316"/>
    </contour>
  </outline>
</glyph>
<glyph name="germandbls" format="1">
  <advance width="582"/>
  <unicode hex="00DF"/>
  <outline>
    <contour>
      <point x="540" y="561" type="curve" smooth="yes"/>
      <point x="540" y="462"/>
      <point x="483" y="415"/>
      <point x="419" y="395" type="curve"/>
      <point x="494" y="369"/>
      <point x="539" y="330"/>
      <point x="539" y="231" type="curve" smooth="yes"/>
      <point x="539" y="82"/>
      <point x="437" y="1"/>
      <point x="298" y="1" type="curve" smooth="yes"/>
      <point x="277" y="1"/>
      <point x="256" y="2"/>
      <point x="235" y="5" type="curve"/>
      <point x="257" y="128" type="line"/>
      <point x="267" y="127"/>
      <point x="277" y="126"/>
      <point x="286" y="126" type="curve" smooth="yes"/>
      <point x="356" y="126"/>
      <point x="398" y="166"/>
      <point x="398" y="242" type="curve" smooth="yes"/>
      <point x="398" y="303"/>
      <point x="363" y="333"/>
      <point x="299" y="333" type="curve" smooth="yes"/>
      <point x="293" y="333" type="line"/>
      <point x="314" y="453" type="line"/>
      <point x="319" y="453" type="line" smooth="yes"/>
      <point x="361" y="453"/>
      <point x="395" y="481"/>
      <point x="395" y="537" type="curve" smooth="yes"/>
      <point x="395" y="576"/>
      <point x="369" y="597"/>
      <point x="327" y="597" type="curve" smooth="yes"/>
      <point x="279" y="597"/>
      <point x="258" y="566"/>
      <point x="249" y="514" type="curve" smooth="yes"/>
      <point x="137" y="-124" type="line"/>
      <point x="-13" y="-193" type="line"/>
      <point x="112" y="521" type="line" smooth="yes"/>
      <point x="138" y="669"/>
      <point x="218" y="726"/>
      <point x="336" y="726" type="curve" smooth="yes"/>
      <point x="470" y="726"/>
      <point x="540" y="659"/>
    </contour>
  </outline>
</glyph>
<glyph name="ae" format="1">
  <advance width="839"/>
  <unicode hex="00E6"/>
  <outline>
    <contour>
      <point x="802" y="323" type="curve" smooth="yes"/>
      <point x="802" y="289"/>
      <point x="796" y="255"/>
      <point x="786" y="218" type="curve"/>
      <point x="474" y="218" type="line"/>
      <point x="466" y="146"/>
      <point x="525" y="119"/>
      <point x="575" y="119" type="curve" smooth="yes"/>
      <point x="609" y="119"/>
      <point x="644" y="130"/>
      <point x="679" y="154" type="curve"/>
      <point x="746" y="58" type="line"/>
      <point x="683" y="9"/>
      <point x="622" y="-11"/>
      <point x="562" y="-11" type="curve" smooth="yes"/>
      <point x="476" y="-11"/>
      <point x="415" y="23"/>
      <point x="382" y="69" type="curve"/>
      <point x="336" y="26"/>
      <point x="278" y="-11"/>
      <point x="206" y="-11" type="curve" smooth="yes"/>
      <point x="99" y="-11"/>
      <point x="23" y="38"/>
      <point x="23" y="152" type="curve" smooth="yes"/>
      <point x="23" y="270"/>
      <point x="108" y="350"/>
      <point x="240" y="350" type="curve" smooth="yes"/>
      <point x="288" y="350"/>
      <point x="343" y="340"/>
      <point x="366" y="329" type="curve"/>
      <point x="370" y="355" type="line"/>
      <point x="371" y="359"/>
      <point x="371" y="362"/>
      <point x="371" y="366" type="curve" smooth="yes"/>
      <point x="371" y="398"/>
      <point x="345" y="422"/>
      <point x="283" y="422" type="curve" smooth="yes"/>
      <point x="241" y="422"/>
      <point x="201" y="414"/>
      <point x="159" y="396" type="curve"/>
      <point x="123" y="494" type="line"/>
      <point x="157" y="511"/>
      <point x="220" y="536"/>
      <point x="300" y="536" type="curve" smooth="yes"/>
      <point x="376" y="536"/>
      <point x="429" y="518"/>
      <point x="464" y="475" type="curve"/>
      <point x="501" y="513"/>
      <point x="552" y="536"/>
      <point x="611" y="536" type="curve" smooth="yes"/>
      <point x="743" y="536"/>
      <point x="802" y="440"/>
    </contour>
    <contour>
      <point x="672" y="322" type="line"/>
      <point x="677" y="372"/>
      <point x="653" y="416"/>
      <point x="591" y="416" type="curve" smooth="yes"/>
      <point x="541" y="416"/>
      <point x="510" y="375"/>
      <point x="494" y="322" type="curve"/>
    </contour>
    <contour>
      <point x="345" y="220" type="line"/>
      <point x="323" y="232"/>
      <point x="291" y="242"/>
      <point x="246" y="242" type="curve" smooth="yes"/>
      <point x="191" y="242"/>
      <point x="164" y="209"/>
      <point x="164" y="167" type="curve" smooth="yes"/>
      <point x="164" y="127"/>
      <point x="190" y="106"/>
      <point x="240" y="106" type="curve" smooth="yes"/>
      <point x="283" y="106"/>
      <point x="317" y="132"/>
      <point x="333" y="154" type="curve"/>
    </contour>
  </outline>
</glyph>
<glyph name="ccedilla" format="1">
  <advance width="533"/>
  <unicode hex="00E7"/>
  <outline>
    <contour>
      <point x="201" y="-5" type="line"/>
      <point x="104" y="17"/>
      <point x="35" y="99"/>
      <point x="35" y="223" type="curve" smooth="yes"/>
      <point x="35" y="388"/>
      <point x="147" y="536"/>
      <point x="318" y="536" type="curve" smooth="yes"/>
      <point x="427" y="536"/>
      <point x="487" y="481"/>
      <point x="527" y="406" type="curve"/>
      <point x="417" y="319" type="line"/>
      <point x="384" y="372"/>
      <point x="353" y="403"/>
      <point x="303" y="403" type="curve" smooth="yes"/>
      <point x="227" y="403"/>
      <point x="176" y="320"/>
      <point x="176" y="234" type="curve" smooth="yes"/>
      <point x="176" y="162"/>
      <point x="215" y="122"/>
      <point x="272" y="122" type="curve" smooth="yes"/>
      <point x="310" y="122"/>
      <point x="349" y="142"/>
      <point x="394" y="182" type="curve"/>
      <point x="472" y="91" type="line"/>
      <point x="397" y="17"/>
      <point x="331" y="-11"/>
      <point x="255" y="-11" type="curve"/>
      <point x="243" y="-42" type="line"/>
      <point x="254" y="-39"/>
      <point x="265" y="-35"/>
      <point x="281" y="-35" type="curve" smooth="yes"/>
      <point x="319" y="-35"/>
      <point x="350" y="-57"/>
      <point x="350" y="-98" type="curve" smooth="yes"/>
      <point x="350" y="-157"/>
      <point x="304" y="-193"/>
      <point x="233" y="-193" type="curve" smooth="yes"/>
      <point x="171" y="-193"/>
      <point x="118" y="-168"/>
      <point x="90" y="-146" type="curve"/>
      <point x="118" y="-110" type="line"/>
      <point x="144" y="-128"/>
      <point x="179" y="-143"/>
      <point x="213" y="-143" type="curve" smooth="yes"/>
      <point x="242" y="-143"/>
      <point x="263" y="-131"/>
      <point x="263" y="-109" type="curve" smooth="yes"/>
      <point x="263" y="-90"/>
      <point x="252" y="-83"/>
      <point x="231" y="-83" type="curve" smooth="yes"/>
      <point x="223" y="-83"/>
      <point x="213" y="-86"/>
      <point x="205" y="-90" type="curve"/>
      <point x="171" y="-76" type="line"/>
    </contour>
  </outline>
</glyph>
<glyph name="eth" format="1">
  <advance width="551"/>
  <unicode hex="00F0"/>
  <outline>
    <contour>
      <point x="525" y="378" type="curve" smooth="yes"/>
      <point x="525" y="94"/>
      <point x="379" y="-11"/>
      <point x="245" y="-11" type="curve" smooth="yes"/>
      <point x="110" y="-11"/>
      <point x="31" y="78"/>
      <point x="31" y="198" type="curve" smooth="yes"/>
      <point x="31" y="369"/>
      <point x="163" y="476"/>
      <point x="279" y="476" type="curve" smooth="yes"/>
      <point x="328" y="476"/>
      <point x="381" y="462"/>
      <point x="409" y="438" type="curve"/>
      <point x="407" y="473"/>
      <point x="393" y="513"/>
      <point x="362" y="547" type="curve"/>
      <point x="310" y="503" type="line"/>
      <point x="256" y="560" type="line"/>
      <point x="298" y="595" type="line"/>
      <point x="275" y="607"/>
      <point x="248" y="615"/>
      <point x="217" y="620" type="curve"/>
      <point x="234" y="715" type="line"/>
      <point x="297" y="708"/>
      <point x="346" y="692"/>
      <point x="385" y="668" type="curve"/>
      <point x="437" y="711" type="line"/>
      <point x="491" y="654" type="line"/>
      <point x="447" y="617" type="line"/>
      <point x="509" y="548"/>
      <point x="525" y="454"/>
    </contour>
    <contour>
      <point x="374" y="262" type="curve" smooth="yes"/>
      <point x="374" y="315"/>
      <point x="346" y="355"/>
      <point x="285" y="355" type="curve" smooth="yes"/>
      <point x="213" y="355"/>
      <point x="167" y="289"/>
      <point x="167" y="202" type="curve" smooth="yes"/>
      <point x="167" y="149"/>
      <point x="194" y="111"/>
      <point x="257" y="111" type="curve" smooth="yes"/>
      <point x="330" y="111"/>
      <point x="374" y="184"/>
    </contour>
  </outline>
</glyph>
<glyph name="oslash" format="1">
  <advance width="551"/>
  <unicode hex="00F8"/>
  <outline>
    <contour>
      <point x="77" y="68" type="line"/>
      <point x="50" y="105"/>
      <point x="35" y="155"/>
      <point x="35" y="215" type="curve" smooth="yes"/>
      <point x="35" y="387"/>
      <point x="148" y="536"/>
      <point x="310" y="536" type="curve" smooth="yes"/>
      <point x="342" y="536"/>
      <point x="370" y="530"/>
      <point x="396" y="519" type="curve"/>
      <point x="435" y="575" type="line"/>
      <point x="558" y="575" type="line"/>
      <point x="474" y="456" type="line"/>
      <point x="501" y="419"/>
      <point x="516" y="369"/>
      <point x="516" y="310" type="curve" smooth="yes"/>
      <point x="516" y="138"/>
      <point x="403" y="-11"/>
      <point x="241" y="-11" type="curve" smooth="yes"/>
      <point x="210" y="-11"/>
      <point x="181" y="-5"/>
      <point x="156" y="5" type="curve"/>
      <point x="117" y="-50" type="line"/>
      <point x="-6" y="-50" type="line"/>
    </contour>
    <contour>
      <point x="170" y="190" type="curve"/>
      <point x="324" y="408" type="line"/>
      <point x="315" y="411"/>
      <point x="305" y="413"/>
      <point x="295" y="413" type="curve" smooth="yes"/>
      <point x="229" y="413"/>
      <point x="167" y="344"/>
      <point x="167" y="224" type="curve" smooth="yes"/>
      <point x="167" y="212"/>
      <point x="168" y="201"/>
    </contour>
    <contour>
      <point x="381" y="334" type="curve"/>
      <point x="227" y="117" type="line"/>
      <point x="236" y="114"/>
      <point x="246" y="112"/>
      <point x="256" y="112" type="curve" smooth="yes"/>
      <point x="322" y="112"/>
      <point x="384" y="181"/>
      <point x="384" y="301" type="curve" smooth="yes"/>
      <point x="384" y="313"/>
      <point x="383" y="324"/>
    </contour>
  </outline>
</glyph>
<glyph name="dotlessi" format="1">
  <advance width="282"/>
  <unicode hex="0131"/>
  <outline>
    <contour>
      <point x="256" y="525" type="line"/>
      <point x="164" y="0" type="line"/>
      <point x="26" y="0" type="line"/>
      <point x="118" y="525" type="line"/>
    </contour>
  </outline>
</glyph>
<glyph name="Lslash" format="1">
  <advance width="631"/>
  <unicode hex="0141"/>
  <outline>
    <contour>
      <point x="571" y="138" type="line"/>
      <point x="546" y="0" type="line"/>
      <point x="59" y="0" type="line"/>
      <point x="101" y="236" type="line"/>
      <point x="27" y="186" type="line"/>
      <point x="51" y="321" type="line"/>
      <point x="125" y="371" type="line"/>
      <point x="183" y="700" type="line"/>
      <point x="321" y="700" type="line"/>
      <point x="278" y="457" type="line"/>
      <point x="409" y="543" type="line"/>
      <point x="385" y="408" type="line"/>
      <point x="254" y="322" type="line"/>
      <point x="222" y="138" type="line"/>
    </contour>
  </outline>
</glyph>
<glyph name="lslash" format="1">
  <advance width="322"/>
  <unicode hex="0142"/>
  <outline>
    <contour>
      <point x="312" y="729" type="line"/>
      <point x="262" y="447" type="line"/>
      <point x="327" y="488" type="line"/>
      <point x="304" y="353" type="line"/>
      <point x="239" y="313" type="line"/>
      <point x="183" y="0" type="line"/>
      <point x="47" y="0" type="line"/>
      <point x="89" y="239" type="line"/>
      <point x="24" y="199" type="line"/>
      <point x="48" y="334" type="line"/>
      <point x="113" y="374" type="line"/>
      <point x="164" y="660" type="line"/>
    </contour>
  </outline>
</glyph>
<glyph name="OE" format="1">
  <advance width="1062"/>
  <unicode hex="0152"/>
  <outline>
    <contour>
      <point x="1065" y="700" type="line"/>
      <point x="1041" y="563" type="line"/>
      <point x="707" y="563" type="line"/>
      <point x="686" y="442" type="line"/>
      <point x="875" y="442" type="line"/>
      <point x="851" y="306" type="line"/>
      <point x="662" y="306" type="line"/>
      <point x="632" y="137" type="line"/>
      <point x="981" y="137" type="line"/>
      <point x="957" y="0" type="line"/>
      <point x="483" y="0" type="line"/>
      <point x="494" y="63" type="line"/>
      <point x="470" y="29"/>
      <point x="413" y="-11"/>
      <point x="332" y="-11" type="curve" smooth="yes"/>
      <point x="165" y="-11"/>
      <point x="59" y="97"/>
      <point x="59" y="277" type="curve" smooth="yes"/>
      <point x="59" y="513"/>
      <point x="204" y="711"/>
      <point x="406" y="711" type="curve" smooth="yes"/>
      <point x="503" y="711"/>
      <point x="562" y="673"/>
      <point x="593" y="627" type="curve"/>
      <point x="606" y="700" type="line"/>
    </contour>
    <contour>
      <point x="542" y="403" type="curve" smooth="yes"/>
      <point x="542" y="519"/>
      <point x="480" y="572"/>
      <point x="401" y="572" type="curve" smooth="yes"/>
      <point x="293" y="572"/>
      <point x="205" y="462"/>
      <point x="205" y="297" type="curve" smooth="yes"/>
      <point x="205" y="181"/>
      <point x="267" y="128"/>
      <point x="346" y="128" type="curve" smooth="yes"/>
      <point x="454" y="128"/>
      <point x="542" y="238"/>
    </contour>
  </outline>
</glyph>
<glyph name="oe" format="1">
  <advance width="856"/>
  <unicode hex="0153"/>
  <outline>
    <contour>
      <point x="804" y="218" type="curve"/>
      <point x="494" y="218" type="line"/>
      <point x="486" y="146"/>
      <point x="544" y="119"/>
      <point x="592" y="119" type="curve" smooth="yes"/>
      <point x="627" y="119"/>
      <point x="662" y="130"/>
      <point x="697" y="154" type="curve"/>
      <point x="764" y="58" type="line"/>
      <point x="701" y="9"/>
      <point x="642" y="-11"/>
      <point x="576" y="-11" type="curve" smooth="yes"/>
      <point x="496" y="-11"/>
      <point x="446" y="17"/>
      <point x="410" y="64" type="curve"/>
      <point x="368" y="17"/>
      <point x="312" y="-11"/>
      <point x="241" y="-11" type="curve" smooth="yes"/>
      <point x="118" y="-11"/>
      <point x="35" y="76"/>
      <point x="35" y="215" type="curve" smooth="yes"/>
      <point x="35" y="387"/>
      <point x="150" y="536"/>
      <point x="306" y="536" type="curve" smooth="yes"/>
      <point x="375" y="536"/>
      <point x="430" y="511"/>
      <point x="461" y="459" type="curve"/>
      <point x="495" y="501"/>
      <point x="555" y="536"/>
      <point x="625" y="536" type="curve" smooth="yes"/>
      <point x="763" y="536"/>
      <point x="820" y="440"/>
      <point x="820" y="323" type="curve" smooth="yes"/>
      <point x="820" y="289"/>
      <point x="813" y="250"/>
    </contour>
    <contour>
      <point x="690" y="322" type="line"/>
      <point x="695" y="372"/>
      <point x="671" y="416"/>
      <point x="609" y="416" type="curve" smooth="yes"/>
      <point x="559" y="416"/>
      <point x="528" y="375"/>
      <point x="512" y="322" type="curve"/>
    </contour>
    <contour>
      <point x="177" y="224" type="curve" smooth="yes"/>
      <point x="177" y="159"/>
      <point x="211" y="122"/>
      <point x="256" y="122" type="curve" smooth="yes"/>
      <point x="318" y="122"/>
      <point x="374" y="188"/>
      <point x="374" y="301" type="curve" smooth="yes"/>
      <point x="374" y="366"/>
      <point x="340" y="403"/>
      <point x="295" y="403" type="curve" smooth="yes"/>
      <point x="233" y="403"/>
      <point x="177" y="337"/>
    </contour>
  </outline>
</glyph>
<glyph name="florin" format="1">
  <advance width="413"/>
  <unicode hex="0192"/>
  <outline>
    <contour>
      <point x="428" y="689" type="curve"/>
      <point x="409" y="588" type="line"/>
      <point x="397" y="594"/>
      <point x="378" y="599"/>
      <point x="354" y="599" type="curve" smooth="yes"/>
      <point x="326" y="599"/>
      <point x="314" y="588"/>
      <point x="308" y="557" type="curve" smooth="yes"/>
      <point x="302" y="525" type="line"/>
      <point x="387" y="525" type="line"/>
      <point x="365" y="398" type="line"/>
      <point x="280" y="398" type="line"/>
      <point x="188" y="-124" type="line"/>
      <point x="38" y="-193" type="line"/>
      <point x="142" y="398" type="line"/>
      <point x="79" y="398" type="line"/>
      <point x="101" y="525" type="line"/>
      <point x="164" y="525" type="line"/>
      <point x="173" y="573" type="line" smooth="yes"/>
      <point x="191" y="670"/>
      <point x="241" y="711"/>
      <point x="323" y="711" type="curve" smooth="yes"/>
      <point x="369" y="711"/>
      <point x="406" y="701"/>
    </contour>
  </outline>
</glyph>
<glyph name="circumflex" format="1">
  <advance width="500"/>
  <unicode hex="02C6"/>
  <outline>
    <contour>
      <point x="501" y="595" type="line"/>
      <point x="412" y="595" type="line"/>
      <point x="325" y="670" type="line"/>
      <point x="212" y="595" type="line"/>
      <point x="117" y="595" type="line"/>
      <point x="267" y="755" type="line"/>
      <point x="407" y="755" type="line"/>
    </contour>
  </outline>
</glyph>
<glyph name="caron" format="1">
  <advance width="500"/>
  <unicode hex="02C7"/>
  <outline>
    <contour>
      <point x="529" y="755" type="line"/>
      <point x="379" y="595" type="line"/>
      <point x="239" y="595" type="line"/>
      <point x="145" y="755" type="line"/>
      <point x="234" y="755" type="line"/>
      <point x="321" y="680" type="line"/>
      <point x="434" y="755" type="line"/>
    </contour>
  </outline>
</glyph>
<glyph name="breve" format="1">
  <advance width="500"/>
  <unicode hex="02D8"/>
  <outline>
    <contour>
      <point x="524" y="755" type="line"/>
      <point x="499" y="653"/>
      <point x="431" y="595"/>
      <point x="320" y="595" type="curve" smooth="yes"/>
      <point x="217" y="595"/>
      <point x="146" y="654"/>
      <point x="150" y="755" type="curve"/>
      <point x="234" y="755" type="line"/>
      <point x="239" y="711"/>
      <point x="273" y="690"/>
      <point x="329" y="690" type="curve" smooth="yes"/>
      <point x="395" y="690"/>
      <point x="422" y="711"/>
      <point x="443" y="755" type="curve"/>
    </contour>
  </outline>
</glyph>
<glyph name="dotaccent" format="1">
  <advance width="500"/>
  <unicode hex="02D9"/>
  <outline>
    <contour>
      <point x="399" y="672" type="curve" smooth="yes"/>
      <point x="399" y="631"/>
      <point x="363" y="595"/>
      <point x="322" y="595" type="curve" smooth="yes"/>
      <point x="279" y="595"/>
      <point x="243" y="631"/>
      <point x="243" y="672" type="curve" smooth="yes"/>
      <point x="243" y="715"/>
      <point x="279" y="750"/>
      <point x="322" y="750" type="curve" smooth="yes"/>
      <point x="363" y="750"/>
      <point x="399" y="715"/>
    </contour>
  </outline>
</glyph>
<glyph name="ring" format="1">
  <advance width="500"/>
  <unicode hex="02DA"/>
  <outline>
    <contour>
      <point x="466" y="728" type="curve" smooth="yes"/>
      <point x="466" y="651"/>
      <point x="408" y="595"/>
      <point x="331" y="595" type="curve" smooth="yes"/>
      <point x="254" y="595"/>
      <point x="196" y="651"/>
      <point x="196" y="728" type="curve" smooth="yes"/>
      <point x="196" y="805"/>
      <point x="254" y="863"/>
      <point x="331" y="863" type="curve" smooth="yes"/>
      <point x="408" y="863"/>
      <point x="466" y="805"/>
    </contour>
    <contour>
      <point x="390" y="728" type="curve" smooth="yes"/>
      <point x="390" y="762"/>
      <point x="364" y="788"/>
      <point x="331" y="788" type="curve" smooth="yes"/>
      <point x="298" y="788"/>
      <point x="272" y="762"/>
      <point x="272" y="728" type="curve" smooth="yes"/>
      <point x="272" y="694"/>
      <point x="298" y="668"/>
      <point x="331" y="668" type="curve" smooth="yes"/>
      <point x="364" y="668"/>
      <point x="390" y="694"/>
    </contour>
  </outline>
</glyph>
<glyph name="ogonek" format="1">
  <advance width="500"/>
  <unicode hex="02DB"/>
  <outline>
    <contour>
      <point x="307" y="-152" type="line"/>
      <point x="277" y="-170"/>
      <point x="235" y="-193"/>
      <point x="187" y="-193" type="curve" smooth="yes"/>
      <point x="121" y="-193"/>
      <point x="86" y="-165"/>
      <point x="86" y="-120" type="curve" smooth="yes"/>
      <point x="86" y="-77"/>
      <point x="115" y="-35"/>
      <point x="177" y="0" type="curve"/>
      <point x="243" y="0" type="line"/>
      <point x="191" y="-46"/>
      <point x="175" y="-79"/>
      <point x="175" y="-100" type="curve" smooth="yes"/>
      <point x="175" y="-120"/>
      <point x="188" y="-130"/>
      <point x="211" y="-130" type="curve" smooth="yes"/>
      <point x="233" y="-130"/>
      <point x="256" y="-125"/>
      <point x="289" y="-111" type="curve"/>
    </contour>
  </outline>
</glyph>
<glyph name="tilde" format="1">
  <advance width="500"/>
  <unicode hex="02DC"/>
  <outline>
    <contour>
      <point x="533" y="736" type="line"/>
      <point x="517" y="647"/>
      <point x="464" y="592"/>
      <point x="396" y="592" type="curve" smooth="yes"/>
      <point x="361" y="592"/>
      <point x="333" y="605"/>
      <point x="309" y="618" type="curve" smooth="yes"/>
      <point x="286" y="631"/>
      <point x="266" y="643"/>
      <point x="246" y="643" type="curve" smooth="yes"/>
      <point x="229" y="643"/>
      <point x="218" y="630"/>
      <point x="206" y="595" type="curve"/>
      <point x="116" y="595" type="line"/>
      <point x="131" y="684"/>
      <point x="184" y="739"/>
      <point x="252" y="739" type="curve" smooth="yes"/>
      <point x="286" y="739"/>
      <point x="313" y="727"/>
      <point x="336" y="714" type="curve" smooth="yes"/>
      <point x="361" y="701"/>
      <point x="381" y="688"/>
      <point x="402" y="688" type="curve" smooth="yes"/>
      <point x="421" y="688"/>
      <point x="430" y="701"/>
      <point x="443" y="736" type="curve"/>
    </contour>
  </outline>
</glyph>
<glyph name="hungarumlaut" format="1">
  <advance width="500"/>
  <unicode hex="02DD"/>
  <outline>
    <contour>
      <point x="601" y="755" type="line"/>
      <point x="428" y="595" type="line"/>
      <point x="311" y="595" type="line"/>
      <point x="426" y="755" type="line"/>
    </contour>
    <contour>
      <point x="381" y="755" type="line"/>
      <point x="208" y="595" type="line"/>
      <point x="91" y="595" type="line"/>
      <point x="206" y="755" type="line"/>
    </contour>
  </outline>
</glyph>
<glyph name="endash" format="1">
  <advance width="460"/>
  <unicode hex="2013"/>
  <outline>
    <contour>
      <point x="434" y="427" type="line"/>
      <point x="412" y="299" type="line"/>
      <point x="62" y="299" type="line"/>
      <point x="84" y="427" type="line"/>
    </contour>
  </outline>
</glyph>
<glyph name="emdash" format="1">
  <advance width="620"/>
  <unicode hex="2014"/>
  <outline>
    <contour>
      <point x="594" y="427" type="line"/>
      <point x="572" y="299" type="line"/>
      <point x="62" y="299" type="line"/>
      <point x="84" y="427" type="line"/>
    </contour>
  </outline>
</glyph>
<glyph name="quoteleft" format="1">
  <advance width="281"/>
  <unicode hex="2018"/>
  <unicode hex="02BB"/>
  <outline>
    <contour>
      <point x="297" y="700" type="line"/>
      <point x="233" y="419" type="line"/>
      <point x="70" y="419" type="line"/>
      <point x="202" y="700" type="line"/>
    </contour>
  </outline>
</glyph>
<glyph name="quoteright" format="1">
  <advance width="281"/>
  <unicode hex="2019"/>
  <unicode hex="02BC"/>
  <outline>
    <contour>
      <point x="315" y="700" type="line"/>
      <point x="183" y="419" type="line"/>
      <point x="88" y="419" type="line"/>
      <point x="152" y="700" type="line"/>
    </contour>
  </outline>
</glyph>
<glyph name="quotesinglbase" format="1">
  <advance width="281"/>
  <unicode hex="201A"/>
  <outline>
    <contour>
      <point x="221" y="169" type="line"/>
      <point x="90" y="-112" type="line"/>
      <point x="-5" y="-112" type="line"/>
      <point x="58" y="169" type="line"/>
    </contour>
  </outline>
</glyph>
<glyph name="quotedblleft" format="1">
  <advance width="542"/>
  <unicode hex="201C"/>
  <outline>
    <contour>
      <point x="558" y="700" type="line"/>
      <point x="495" y="419" type="line"/>
      <point x="332" y="419" type="line"/>
      <point x="463" y="700" type="line"/>
    </contour>
    <contour>
      <point x="297" y="700" type="line"/>
      <point x="234" y="419" type="line"/>
      <point x="71" y="419" type="line"/>
      <point x="202" y="700" type="line"/>
    </contour>
  </outline>
</glyph>
<glyph name="quotedblright" format="1">
  <advance width="542"/>
  <unicode hex="201D"/>
  <outline>
    <contour>
      <point x="576" y="700" type="line"/>
      <point x="445" y="419" type="line"/>
      <point x="350" y="419" type="line"/>
      <point x="413" y="700" type="line"/>
    </contour>
    <contour>
      <point x="315" y="700" type="line"/>
      <point x="184" y="419" type="line"/>
      <point x="89" y="419" type="line"/>
      <point x="152" y="700" type="line"/>
    </contour>
  </outline>
</glyph>
<glyph name="quotedblbase" format="1">
  <advance width="542"/>
  <unicode hex="201E"/>
  <outline>
    <contour>
      <point x="482" y="169" type="line"/>
      <point x="351" y="-112" type="line"/>
      <point x="256" y="-112" type="line"/>
      <point x="319" y="169" type="line"/>
    </contour>
    <contour>
      <point x="221" y="169" type="line"/>
      <point x="90" y="-112" type="line"/>
      <point x="-5" y="-112" type="line"/>
      <point x="58" y="169" type="line"/>
    </contour>
  </outline>
</glyph>
<glyph name="dagger" format="1">
  <advance width="590"/>
  <unicode hex="2020"/>
  <outline>
    <contour>
      <point x="576" y="491" type="line"/>
      <point x="554" y="366" type="line"/>
      <point x="382" y="366" type="line"/>
      <point x="299" y="-100" type="line"/>
      <point x="163" y="-100" type="line"/>
      <point x="246" y="366" type="line"/>
      <point x="74" y="366" type="line"/>
      <point x="96" y="491" type="line"/>
      <point x="268" y="491" type="line"/>
      <point x="305" y="700" type="line"/>
      <point x="441" y="700" type="line"/>
      <point x="404" y="491" type="line"/>
    </contour>
  </outline>
</glyph>
<glyph name="daggerdbl" format="1">
  <advance width="590"/>
  <unicode hex="2021"/>
  <outline>
    <contour>
      <point x="576" y="491" type="line"/>
      <point x="554" y="368" type="line"/>
      <point x="380" y="368" type="line"/>
      <point x="356" y="232" type="line"/>
      <point x="530" y="232" type="line"/>
      <point x="508" y="109" type="line"/>
      <point x="334" y="109" type="line"/>
      <point x="297" y="-100" type="line"/>
      <point x="165" y="-100" type="line"/>
      <point x="202" y="109" type="line"/>
      <point x="28" y="109" type="line"/>
      <point x="50" y="232" type="line"/>
      <point x="224" y="232" type="line"/>
      <point x="248" y="368" type="line"/>
      <point x="74" y="368" type="line"/>
      <point x="96" y="491" type="line"/>
      <point x="270" y="491" type="line"/>
      <point x="307" y="700" type="line"/>
      <point x="439" y="700" type="line"/>
      <point x="402" y="491" type="line"/>
    </contour>
  </outline>
</glyph>
<glyph name="ellipsis" format="1">
  <advance width="816"/>
  <unicode hex="2026"/>
  <outline>
    <contour>
      <point x="742" y="83" type="curve" smooth="yes"/>
      <point x="742" y="32"/>
      <point x="699" y="-11"/>
      <point x="648" y="-11" type="curve" smooth="yes"/>
      <point x="597" y="-11"/>
      <point x="554" y="32"/>
      <point x="554" y="83" type="curve" smooth="yes"/>
      <point x="554" y="134"/>
      <point x="597" y="177"/>
      <point x="648" y="177" type="curve" smooth="yes"/>
      <point x="699" y="177"/>
      <point x="742" y="134"/>
    </contour>
    <contour>
      <point x="470" y="83" type="curve" smooth="yes"/>
      <point x="470" y="32"/>
      <point x="427" y="-11"/>
      <point x="376" y="-11" type="curve" smooth="yes"/>
      <point x="325" y="-11"/>
      <point x="282" y="32"/>
      <point x="282" y="83" type="curve" smooth="yes"/>
      <point x="282" y="134"/>
      <point x="325" y="177"/>
      <point x="376" y="177" type="curve" smooth="yes"/>
      <point x="427" y="177"/>
      <point x="470" y="134"/>
    </contour>
    <contour>
      <point x="198" y="83" type="curve" smooth="yes"/>
      <point x="198" y="32"/>
      <point x="155" y="-11"/>
      <point x="104" y="-11" type="curve" smooth="yes"/>
      <point x="53" y="-11"/>
      <point x="10" y="32"/>
      <point x="10" y="83" type="curve" smooth="yes"/>
      <point x="10" y="134"/>
      <point x="53" y="177"/>
      <point x="104" y="177" type="curve" smooth="yes"/>
      <point x="155" y="177"/>
      <point x="198" y="134"/>
    </contour>
  </outline>
</glyph>
<glyph name="guilsinglleft" format="1">
  <advance width="376"/>
  <unicode hex="2039"/>
  <outline>
    <contour>
      <point x="382" y="525" type="line"/>
      <point x="178" y="263" type="line"/>
      <point x="290" y="0" type="line"/>
      <point x="147" y="0" type="line"/>
      <point x="30" y="262" type="line"/>
      <point x="239" y="525" type="line"/>
    </contour>
  </outline>
</glyph>
<glyph name="guilsinglright" format="1">
  <advance width="376"/>
  <unicode hex="203A"/>
  <outline>
    <contour>
      <point x="346" y="263" type="line"/>
      <point x="137" y="0" type="line"/>
      <point x="-6" y="0" type="line"/>
      <point x="198" y="262" type="line"/>
      <point x="86" y="525" type="line"/>
      <point x="229" y="525" type="line"/>
    </contour>
  </outline>
</glyph>
<glyph name="fraction" format="1">
  <advance width="493"/>
  <unicode hex="2044"/>
  <outline>
    <contour>
      <point x="633" y="700" type="line"/>
      <point x="40" y="0" type="line"/>
      <point x="-108" y="0" type="line"/>
      <point x="485" y="700" type="line"/>
    </contour>
  </outline>
</glyph>
<glyph name="Euro" format="1">
  <advance width="634"/>
  <unicode hex="20AC"/>
  <outline>
    <contour>
      <point x="207" y="378" type="line"/>
      <point x="204" y="359"/>
      <point x="201" y="340"/>
      <point x="200" y="321" type="curve"/>
      <point x="419" y="321" type="line"/>
      <point x="402" y="229" type="line"/>
      <point x="202" y="229" type="line"/>
      <point x="214" y="159"/>
      <point x="256" y="121"/>
      <point x="326" y="121" type="curve" smooth="yes"/>
      <point x="384" y="121"/>
      <point x="431" y="159"/>
      <point x="473" y="212" type="curve"/>
      <point x="583" y="132" type="line"/>
      <point x="517" y="47"/>
      <point x="428" y="-11"/>
      <point x="315" y="-11" type="curve" smooth="yes"/>
      <point x="153" y="-11"/>
      <point x="57" y="96"/>
      <point x="57" y="273" type="curve" smooth="yes"/>
      <point x="57" y="500"/>
      <point x="186" y="711"/>
      <point x="399" y="711" type="curve" smooth="yes"/>
      <point x="542" y="711"/>
      <point x="612" y="636"/>
      <point x="642" y="517" type="curve"/>
      <point x="507" y="466" type="line"/>
      <point x="491" y="532"/>
      <point x="456" y="579"/>
      <point x="385" y="579" type="curve" smooth="yes"/>
      <point x="317" y="579"/>
      <point x="267" y="535"/>
      <point x="236" y="470" type="curve"/>
      <point x="445" y="470" type="line"/>
      <point x="428" y="378" type="line"/>
    </contour>
  </outline>
</glyph>
<glyph name="uni2117" format="1">
  <advance width="836"/>
  <unicode hex="2117"/>
  <outline>
    <contour>
      <point x="789" y="350" type="curve" smooth="yes"/>
      <point x="789" y="145"/>
      <point x="633" y="-11"/>
      <point x="428" y="-11" type="curve" smooth="yes"/>
      <point x="223" y="-11"/>
      <point x="67" y="145"/>
      <point x="67" y="350" type="curve" smooth="yes"/>
      <point x="67" y="555"/>
      <point x="223" y="711"/>
      <point x="428" y="711" type="curve" smooth="yes"/>
      <point x="633" y="711"/>
      <point x="789" y="555"/>
    </contour>
    <contour>
      <point x="725" y="350" type="curve" smooth="yes"/>
      <point x="725" y="519"/>
      <point x="597" y="647"/>
      <point x="428" y="647" type="curve" smooth="yes"/>
      <point x="259" y="647"/>
      <point x="131" y="519"/>
      <point x="131" y="350" type="curve" smooth="yes"/>
      <point x="131" y="181"/>
      <point x="259" y="53"/>
      <point x="428" y="53" type="curve" smooth="yes"/>
      <point x="597" y="53"/>
      <point x="725" y="181"/>
    </contour>
    <contour>
      <point x="607" y="422" type="curve" smooth="yes"/>
      <point x="607" y="332"/>
      <point x="546" y="294"/>
      <point x="465" y="294" type="curve" smooth="yes"/>
      <point x="383" y="294" type="line"/>
      <point x="383" y="153" type="line"/>
      <point x="300" y="153" type="line"/>
      <point x="300" y="547" type="line"/>
      <point x="472" y="547" type="line" smooth="yes"/>
      <point x="546" y="547"/>
      <point x="607" y="506"/>
    </contour>
    <contour>
      <point x="522" y="421" type="curve" smooth="yes"/>
      <point x="522" y="456"/>
      <point x="501" y="471"/>
      <point x="466" y="471" type="curve" smooth="yes"/>
      <point x="383" y="471" type="line"/>
      <point x="383" y="368" type="line"/>
      <point x="466" y="368" type="line" smooth="yes"/>
      <point x="503" y="368"/>
      <point x="522" y="387"/>
    </contour>
  </outline>
</glyph>
<glyph name="trademark" format="1">
  <advance width="826"/>
  <unicode hex="2122"/>
  <outline>
    <contour>
      <point x="387" y="700" type="line"/>
      <point x="372" y="618" type="line"/>
      <point x="274" y="618" type="line"/>
      <point x="219" y="306" type="line"/>
      <point x="124" y="306" type="line"/>
      <point x="179" y="618" type="line"/>
      <point x="81" y="618" type="line"/>
      <point x="96" y="700" type="line"/>
    </contour>
    <contour>
      <point x="862" y="700" type="line"/>
      <point x="792" y="306" type="line"/>
      <point x="703" y="306" type="line"/>
      <point x="738" y="501" type="line" smooth="yes"/>
      <point x="740" y="515"/>
      <point x="745" y="531"/>
      <point x="747" y="545" type="curve"/>
      <point x="740" y="533"/>
      <point x="733" y="519"/>
      <point x="725" y="507" type="curve" smooth="yes"/>
      <point x="586" y="294" type="line"/>
      <point x="521" y="507" type="line" smooth="yes"/>
      <point x="517" y="519"/>
      <point x="515" y="533"/>
      <point x="512" y="544" type="curve"/>
      <point x="511" y="530"/>
      <point x="509" y="514"/>
      <point x="507" y="501" type="curve" smooth="yes"/>
      <point x="472" y="306" type="line"/>
      <point x="383" y="306" type="line"/>
      <point x="453" y="700" type="line"/>
      <point x="545" y="700" type="line"/>
      <point x="595" y="530" type="line" smooth="yes"/>
      <point x="601" y="509"/>
      <point x="611" y="482"/>
      <point x="614" y="465" type="curve"/>
      <point x="622" y="483"/>
      <point x="638" y="507"/>
      <point x="653" y="530" type="curve" smooth="yes"/>
      <point x="764" y="700" type="line"/>
    </contour>
  </outline>
</glyph>
<glyph name="arrowup" format="1">
  <advance width="440"/>
  <unicode hex="2191"/>
  <outline>
    <contour>
      <point x="374" y="476" type="curve" smooth="yes"/>
      <point x="364" y="462"/>
      <point x="352" y="457"/>
      <point x="332" y="463" type="curve" smooth="yes"/>
      <point x="285" y="477" type="line"/>
      <point x="285" y="0" type="line"/>
      <point x="155" y="0" type="line"/>
      <point x="155" y="477" type="line"/>
      <point x="106" y="463" type="line" smooth="yes"/>
      <point x="87" y="458"/>
      <point x="76" y="461"/>
      <point x="66" y="476" type="curve" smooth="yes"/>
      <point x="61" y="483"/>
      <point x="58" y="497"/>
      <point x="69" y="512" type="curve" smooth="yes"/>
      <point x="219" y="715" type="line"/>
      <point x="372" y="512" type="line"/>
      <point x="381" y="497"/>
      <point x="379" y="483"/>
    </contour>
  </outline>
</glyph>
<glyph name="arrowdown" format="1">
  <advance width="440"/>
  <unicode hex="2193"/>
  <outline>
    <contour>
      <point x="374" y="224" type="curve" smooth="yes"/>
      <point x="379" y="217"/>
      <point x="381" y="203"/>
      <point x="372" y="188" type="curve"/>
      <point x="219" y="-15" type="line"/>
      <point x="69" y="188" type="line" smooth="yes"/>
      <point x="58" y="203"/>
      <point x="61" y="217"/>
      <point x="66" y="224" type="curve" smooth="yes"/>
      <point x="76" y="239"/>
      <point x="87" y="242"/>
      <point x="106" y="237" type="curve" smooth="yes"/>
      <point x="155" y="223" type="line"/>
      <point x="155" y="700" type="line"/>
      <point x="285" y="700" type="line"/>
      <point x="285" y="223" type="line"/>
      <point x="332" y="237" type="line" smooth="yes"/>
      <point x="352" y="243"/>
      <point x="364" y="238"/>
    </contour>
  </outline>
</glyph>
<glyph name="radical" format="1">
  <advance width="673"/>
  <unicode hex="221A"/>
  <outline>
    <contour>
      <point x="714" y="700" type="line"/>
      <point x="312" y="0" type="line"/>
      <point x="163" y="0" type="line"/>
      <point x="52" y="340" type="line"/>
      <point x="198" y="340" type="line"/>
      <point x="220" y="259" type="line" smooth="yes"/>
      <point x="228" y="231"/>
      <point x="247" y="151"/>
      <point x="253" y="124" type="curve"/>
      <point x="267" y="152"/>
      <point x="297" y="210"/>
      <point x="326" y="263" type="curve" smooth="yes"/>
      <point x="566" y="700" type="line"/>
    </contour>
  </outline>
</glyph>
<glyph name="fi" format="1">
  <advance width="643"/>
  <unicode hex="FB01"/>
  <outline>
    <contour>
      <point x="647" y="647" type="curve" smooth="yes"/>
      <point x="647" y="604"/>
      <point x="611" y="568"/>
      <point x="568" y="568" type="curve" smooth="yes"/>
      <point x="525" y="568"/>
      <point x="489" y="604"/>
      <point x="489" y="647" type="curve" smooth="yes"/>
      <point x="489" y="690"/>
      <point x="525" y="726"/>
      <point x="568" y="726" type="curve" smooth="yes"/>
      <point x="611" y="726"/>
      <point x="647" y="690"/>
    </contour>
    <contour>
      <point x="413" y="704" type="curve"/>
      <point x="393" y="597" type="line"/>
      <point x="383" y="603"/>
      <point x="360" y="611"/>
      <point x="338" y="611" type="curve" smooth="yes"/>
      <point x="308" y="611"/>
      <point x="298" y="599"/>
      <point x="293" y="569" type="curve" smooth="yes"/>
      <point x="285" y="525" type="line"/>
      <point x="370" y="525" type="line"/>
      <point x="347" y="395" type="line"/>
      <point x="262" y="395" type="line"/>
      <point x="193" y="0" type="line"/>
      <point x="55" y="0" type="line"/>
      <point x="124" y="395" type="line"/>
      <point x="61" y="395" type="line"/>
      <point x="84" y="525" type="line"/>
      <point x="147" y="525" type="line"/>
      <point x="158" y="588" type="line" smooth="yes"/>
      <point x="176" y="689"/>
      <point x="220" y="726"/>
      <point x="316" y="726" type="curve" smooth="yes"/>
      <point x="352" y="726"/>
      <point x="394" y="716"/>
    </contour>
    <contour>
      <point x="617" y="525" type="line"/>
      <point x="525" y="0" type="line"/>
      <point x="387" y="0" type="line"/>
      <point x="479" y="525" type="line"/>
    </contour>
  </outline>
</glyph>
<glyph name="fl" format="1">
  <advance width="643"/>
  <unicode hex="FB02"/>
  <outline>
    <contour>
      <point x="653" y="729" type="line"/>
      <point x="525" y="0" type="line"/>
      <point x="387" y="0" type="line"/>
      <point x="503" y="660" type="line"/>
    </contour>
    <contour>
      <point x="413" y="704" type="curve"/>
      <point x="393" y="597" type="line"/>
      <point x="383" y="603"/>
      <point x="360" y="611"/>
      <point x="338" y="611" type="curve" smooth="yes"/>
      <point x="308" y="611"/>
      <point x="298" y="599"/>
      <point x="293" y="569" type="curve" smooth="yes"/>
      <point x="285" y="525" type="line"/>
      <point x="370" y="525" type="line"/>
      <point x="347" y="395" type="line"/>
      <point x="262" y="395" type="line"/>
      <point x="193" y="0" type="line"/>
      <point x="55" y="0" type="line"/>
      <point x="124" y="395" type="line"/>
      <point x="61" y="395" type="line"/>
      <point x="84" y="525" type="line"/>
      <point x="147" y="525" type="line"/>
      <point x="158" y="588" type="line" smooth="yes"/>
      <point x="176" y="689"/>
      <point x="220" y="726"/>
      <point x="316" y="726" type="curve" smooth="yes"/>
      <point x="352" y="726"/>
      <point x="394" y="716"/>
    </contour>
  </outline>
</glyph>
<glyph name="bullet" format="1">
  <advance width="490"/>
  <outline>
    <contour>
      <point x="441" y="366" type="curve" smooth="yes"/>
      <point x="441" y="265"/>
      <point x="362" y="186"/>
      <point x="261" y="186" type="curve" smooth="yes"/>
      <point x="160" y="186"/>
      <point x="81" y="265"/>
      <point x="81" y="366" type="curve" smooth="yes"/>
      <point x="81" y="467"/>
      <point x="160" y="548"/>
      <point x="261" y="548" type="curve" smooth="yes"/>
      <point x="362" y="548"/>
      <point x="441" y="467"/>
    </contour>
  </outline>
</glyph>
<glyph name="macron" format="1">
  <advance width="500"/>
  <outline>
    <contour>
      <point x="475" y="715" type="line"/>
      <point x="457" y="610" type="line"/>
      <point x="167" y="610" type="line"/>
      <point x="185" y="715" type="line"/>
    </contour>
  </outline>
</glyph>
<glyph name="registered" format="1">
  <advance width="836"/>
  <outline>
    <contour>
      <point x="789" y="350" type="curve" smooth="yes"/>
      <point x="789" y="145"/>
      <point x="633" y="-11"/>
      <point x="428" y="-11" type="curve" smooth="yes"/>
      <point x="223" y="-11"/>
      <point x="67" y="145"/>
      <point x="67" y="350" type="curve" smooth="yes"/>
      <point x="67" y="555"/>
      <point x="223" y="711"/>
      <point x="428" y="711" type="curve" smooth="yes"/>
      <point x="633" y="711"/>
      <point x="789" y="555"/>
    </contour>
    <contour>
      <point x="725" y="350" type="curve" smooth="yes"/>
      <point x="725" y="519"/>
      <point x="597" y="647"/>
      <point x="428" y="647" type="curve" smooth="yes"/>
      <point x="259" y="647"/>
      <point x="131" y="519"/>
      <point x="131" y="350" type="curve" smooth="yes"/>
      <point x="131" y="181"/>
      <point x="259" y="53"/>
      <point x="428" y="53" type="curve" smooth="yes"/>
      <point x="597" y="53"/>
      <point x="725" y="181"/>
    </contour>
    <contour>
      <point x="600" y="430" type="curve" smooth="yes"/>
      <point x="600" y="362"/>
      <point x="564" y="331"/>
      <point x="522" y="315" type="curve"/>
      <point x="598" y="160" type="line"/>
      <point x="504" y="160" type="line"/>
      <point x="433" y="304" type="line"/>
      <point x="365" y="304" type="line"/>
      <point x="365" y="160" type="line"/>
      <point x="282" y="160" type="line"/>
      <point x="282" y="554" type="line"/>
      <point x="465" y="554" type="line" smooth="yes"/>
      <point x="541" y="554"/>
      <point x="600" y="514"/>
    </contour>
    <contour>
      <point x="515" y="428" type="curve" smooth="yes"/>
      <point x="515" y="463"/>
      <point x="494" y="478"/>
      <point x="459" y="478" type="curve" smooth="yes"/>
      <point x="365" y="478" type="line"/>
      <point x="365" y="377" type="line"/>
      <point x="459" y="377" type="line" smooth="yes"/>
      <point x="495" y="377"/>
      <point x="515" y="395"/>
    </contour>
  </outline>
</glyph>
